<svg class="main-svg" xmlns="http://www.w3.org/2000/svg" xmlns:xlink="http://www.w3.org/1999/xlink" width="1200" height="650" style="" viewBox="0 0 1200 650"><rect x="0" y="0" width="1200" height="650" style="fill: rgb(255, 255, 255); fill-opacity: 1;"/><defs id="defs-14987f"><g class="clips"><clipPath id="clip14987fxyplot" class="plotclip"><rect width="377.6" height="570"/></clipPath><clipPath id="clip14987fx2y2plot" class="plotclip"><rect width="377.6" height="570"/></clipPath><clipPath id="clip14987fx3y3plot" class="plotclip"><rect width="377.59999999999997" height="570"/></clipPath><clipPath class="axesclip" id="clip14987fx"><rect x="10" y="0" width="377.6" height="650"/></clipPath><clipPath class="axesclip" id="clip14987fy"><rect x="0" y="50" width="1200" height="570"/></clipPath><clipPath class="axesclip" id="clip14987fxy"><rect x="10" y="50" width="377.6" height="570"/></clipPath><clipPath class="axesclip" id="clip14987fy2"><rect x="0" y="50" width="1200" height="570"/></clipPath><clipPath class="axesclip" id="clip14987fxy2"><rect x="10" y="50" width="377.6" height="570"/></clipPath><clipPath class="axesclip" id="clip14987fy3"><rect x="0" y="50" width="1200" height="570"/></clipPath><clipPath class="axesclip" id="clip14987fxy3"><rect x="10" y="50" width="377.6" height="570"/></clipPath><clipPath class="axesclip" id="clip14987fx2"><rect x="411.20000000000005" y="0" width="377.6" height="650"/></clipPath><clipPath class="axesclip" id="clip14987fx2y"><rect x="411.20000000000005" y="50" width="377.6" height="570"/></clipPath><clipPath class="axesclip" id="clip14987fx2y2"><rect x="411.20000000000005" y="50" width="377.6" height="570"/></clipPath><clipPath class="axesclip" id="clip14987fx2y3"><rect x="411.20000000000005" y="50" width="377.6" height="570"/></clipPath><clipPath class="axesclip" id="clip14987fx3"><rect x="812.4000000000001" y="0" width="377.59999999999997" height="650"/></clipPath><clipPath class="axesclip" id="clip14987fx3y"><rect x="812.4000000000001" y="50" width="377.59999999999997" height="570"/></clipPath><clipPath class="axesclip" id="clip14987fx3y2"><rect x="812.4000000000001" y="50" width="377.59999999999997" height="570"/></clipPath><clipPath class="axesclip" id="clip14987fx3y3"><rect x="812.4000000000001" y="50" width="377.59999999999997" height="570"/></clipPath></g><g class="gradients"/><g class="patterns"/></defs><g class="bglayer"><rect class="bg" x="10" y="50" width="377.6" height="570" style="fill: rgb(0, 0, 0); fill-opacity: 0; stroke-width: 0;"/><rect class="bg" x="411.20000000000005" y="50" width="377.6" height="570" style="fill: rgb(0, 0, 0); fill-opacity: 0; stroke-width: 0;"/><rect class="bg" x="812.4000000000001" y="50" width="377.59999999999997" height="570" style="fill: rgb(0, 0, 0); fill-opacity: 0; stroke-width: 0;"/></g><g class="layer-below"><g class="imagelayer"/><g class="shapelayer"/></g><g class="cartesianlayer"><g class="subplot xy"><g class="layer-subplot"><g class="shapelayer"/><g class="imagelayer"/></g><g class="minor-gridlayer"><g class="x"/><g class="y"/></g><g class="gridlayer"><g class="x"/><g class="y"/></g><g class="zerolinelayer"/><g class="layer-between"><g class="shapelayer"/><g class="imagelayer"/></g><path class="xlines-below"/><path class="ylines-below"/><g class="overlines-below"/><g class="xaxislayer-below"/><g class="yaxislayer-below"/><g class="overaxes-below"/><g class="overplot"><g class="xy" transform="translate(10,50)" clip-path="url(#clip14987fxyplot)"><g class="scatterlayer mlayer"><g class="trace scatter tracef7bc2c" style="stroke-miterlimit: 2; opacity: 1;"><g class="fills"/><g class="errorbars"/><g class="lines"><path class="js-line" d="M49.98,425.49L188.8,80.28" style="vector-effect: none; fill: none; stroke: rgb(180, 180, 180); stroke-opacity: 0.5; stroke-width: 1.5px; opacity: 1;"/><path class="js-line" d="M80.83,513.8L188.8,80.28" style="vector-effect: none; fill: none; stroke: rgb(180, 180, 180); stroke-opacity: 0.5; stroke-width: 1.5px; opacity: 1;"/><path class="js-line" d="M111.68,425.49L188.8,80.28" style="vector-effect: none; fill: none; stroke: rgb(180, 180, 180); stroke-opacity: 0.5; stroke-width: 1.5px; opacity: 1;"/><path class="js-line" d="M142.53,513.8L188.8,80.28" style="vector-effect: none; fill: none; stroke: rgb(180, 180, 180); stroke-opacity: 0.5; stroke-width: 1.5px; opacity: 1;"/><path class="js-line" d="M173.38,425.49L188.8,80.28" style="vector-effect: none; fill: none; stroke: rgb(180, 180, 180); stroke-opacity: 0.5; stroke-width: 1.5px; opacity: 1;"/><path class="js-line" d="M204.22,513.8L188.8,80.28" style="vector-effect: none; fill: none; stroke: rgb(180, 180, 180); stroke-opacity: 0.5; stroke-width: 1.5px; opacity: 1;"/><path class="js-line" d="M235.07,425.49L188.8,80.28" style="vector-effect: none; fill: none; stroke: rgb(180, 180, 180); stroke-opacity: 0.5; stroke-width: 1.5px; opacity: 1;"/><path class="js-line" d="M265.92,513.8L188.8,80.28" style="vector-effect: none; fill: none; stroke: rgb(180, 180, 180); stroke-opacity: 0.5; stroke-width: 1.5px; opacity: 1;"/><path class="js-line" d="M296.77,425.49L188.8,80.28" style="vector-effect: none; fill: none; stroke: rgb(180, 180, 180); stroke-opacity: 0.5; stroke-width: 1.5px; opacity: 1;"/><path class="js-line" d="M327.62,513.8L188.8,80.28" style="vector-effect: none; fill: none; stroke: rgb(180, 180, 180); stroke-opacity: 0.5; stroke-width: 1.5px; opacity: 1;"/></g><g class="points"/><g class="text"/></g><g class="trace scatter trace1a7812" style="stroke-miterlimit: 2; opacity: 1;"><g class="fills"/><g class="errorbars"/><g class="lines"><path class="js-line" d="M188.8,80.28L133.27,200.7" style="vector-effect: none; fill: none; stroke: rgb(231, 76, 60); stroke-opacity: 0.85; stroke-width: 3.5px; opacity: 1;"/><path class="js-line" d="M188.8,80.28L244.33,200.7" style="vector-effect: none; fill: none; stroke: rgb(231, 76, 60); stroke-opacity: 0.85; stroke-width: 3.5px; opacity: 1;"/></g><g class="points"/><g class="text"/></g><g class="trace scatter trace3da1d3" style="stroke-miterlimit: 2; opacity: 1;"><g class="fills"/><g class="errorbars"/><g class="lines"><path class="js-line" d="M142.53,513.8L244.33,200.7" style="vector-effect: none; fill: none; stroke: rgb(52, 152, 219); stroke-opacity: 0.7; stroke-dasharray: 9px, 9px; stroke-width: 2px; opacity: 1;"/></g><g class="points"/><g class="text"/></g><g class="trace scatter trace29db05" style="stroke-miterlimit: 2; opacity: 1;"><g class="fills"/><g class="errorbars"/><g class="lines"/><g class="points"><path class="point" transform="translate(49.98,425.49)" d="M12,0A12,12 0 1,1 0,-12A12,12 0 0,1 12,0Z" style="opacity: 0.7; stroke-width: 2px; fill: rgb(76, 175, 80); fill-opacity: 1; stroke: rgb(51, 51, 51); stroke-opacity: 1;"/><path class="point" transform="translate(80.83,513.8)" d="M12,0A12,12 0 1,1 0,-12A12,12 0 0,1 12,0Z" style="opacity: 0.7; stroke-width: 2px; fill: rgb(255, 87, 34); fill-opacity: 1; stroke: rgb(51, 51, 51); stroke-opacity: 1;"/><path class="point" transform="translate(111.68,425.49)" d="M12,0A12,12 0 1,1 0,-12A12,12 0 0,1 12,0Z" style="opacity: 0.7; stroke-width: 2px; fill: rgb(255, 87, 34); fill-opacity: 1; stroke: rgb(51, 51, 51); stroke-opacity: 1;"/><path class="point" transform="translate(142.53,513.8)" d="M12,0A12,12 0 1,1 0,-12A12,12 0 0,1 12,0Z" style="opacity: 0.7; stroke-width: 2px; fill: rgb(255, 87, 34); fill-opacity: 1; stroke: rgb(51, 51, 51); stroke-opacity: 1;"/><path class="point" transform="translate(173.38,425.49)" d="M12,0A12,12 0 1,1 0,-12A12,12 0 0,1 12,0Z" style="opacity: 0.7; stroke-width: 2px; fill: rgb(233, 30, 99); fill-opacity: 1; stroke: rgb(51, 51, 51); stroke-opacity: 1;"/><path class="point" transform="translate(204.22,513.8)" d="M12,0A12,12 0 1,1 0,-12A12,12 0 0,1 12,0Z" style="opacity: 0.7; stroke-width: 2px; fill: rgb(76, 175, 80); fill-opacity: 1; stroke: rgb(51, 51, 51); stroke-opacity: 1;"/><path class="point" transform="translate(235.07,425.49)" d="M12,0A12,12 0 1,1 0,-12A12,12 0 0,1 12,0Z" style="opacity: 0.7; stroke-width: 2px; fill: rgb(255, 87, 34); fill-opacity: 1; stroke: rgb(51, 51, 51); stroke-opacity: 1;"/><path class="point" transform="translate(265.92,513.8)" d="M12,0A12,12 0 1,1 0,-12A12,12 0 0,1 12,0Z" style="opacity: 0.7; stroke-width: 2px; fill: rgb(233, 30, 99); fill-opacity: 1; stroke: rgb(51, 51, 51); stroke-opacity: 1;"/><path class="point" transform="translate(296.77,425.49)" d="M12,0A12,12 0 1,1 0,-12A12,12 0 0,1 12,0Z" style="opacity: 0.7; stroke-width: 2px; fill: rgb(255, 193, 7); fill-opacity: 1; stroke: rgb(51, 51, 51); stroke-opacity: 1;"/><path class="point" transform="translate(327.62,513.8)" d="M12,0A12,12 0 1,1 0,-12A12,12 0 0,1 12,0Z" style="opacity: 0.7; stroke-width: 2px; fill: rgb(233, 30, 99); fill-opacity: 1; stroke: rgb(51, 51, 51); stroke-opacity: 1;"/><path class="point" transform="translate(188.8,80.28)" d="M24.7,0L0,24.7L-24.7,0L0,-24.7Z" style="opacity: 0.7; stroke-width: 2px; fill: rgb(231, 76, 60); fill-opacity: 1; stroke: rgb(51, 51, 51); stroke-opacity: 1;"/><path class="point" transform="translate(133.27,200.7)" d="M24.7,0L0,24.7L-24.7,0L0,-24.7Z" style="opacity: 0.7; stroke-width: 2px; fill: rgb(41, 128, 185); fill-opacity: 1; stroke: rgb(51, 51, 51); stroke-opacity: 1;"/><path class="point" transform="translate(244.33,200.7)" d="M24.7,0L0,24.7L-24.7,0L0,-24.7Z" style="opacity: 0.7; stroke-width: 2px; fill: rgb(39, 174, 96); fill-opacity: 1; stroke: rgb(51, 51, 51); stroke-opacity: 1;"/></g><g class="text"><g class="textpoint" transform="translate(0,-18.5)"><text x="49.98" y="425.49" text-anchor="middle" style="font-family: 'Open Sans', verdana, arial, sans-serif; font-size: 10px; fill: rgb(17, 17, 17); fill-opacity: 1; white-space: pre;">WATSONS</text></g><g class="textpoint" transform="translate(0,23.5)"><text x="80.83" y="513.8" text-anchor="middle" style="font-family: 'Open Sans', verdana, arial, sans-serif; font-size: 10px; fill: rgb(17, 17, 17); fill-opacity: 1; white-space: pre;">STARBUCKS COFFEE</text></g><g class="textpoint" transform="translate(0,-18.5)"><text x="111.68" y="425.49" text-anchor="middle" style="font-family: 'Open Sans', verdana, arial, sans-serif; font-size: 10px; fill: rgb(17, 17, 17); fill-opacity: 1; white-space: pre;">CAFE AMAZON</text></g><g class="textpoint" transform="translate(0,23.5)"><text x="142.53" y="513.8" text-anchor="middle" style="font-family: 'Open Sans', verdana, arial, sans-serif; font-size: 10px; fill: rgb(17, 17, 17); fill-opacity: 1; white-space: pre;">KFC</text></g><g class="textpoint" transform="translate(0,-18.5)"><text x="173.38" y="425.49" text-anchor="middle" style="font-family: 'Open Sans', verdana, arial, sans-serif; font-size: 10px; fill: rgb(17, 17, 17); fill-opacity: 1; white-space: pre;">CROCS</text></g><g class="textpoint" transform="translate(0,23.5)"><text x="204.22" y="513.8" text-anchor="middle" style="font-family: 'Open Sans', verdana, arial, sans-serif; font-size: 10px; fill: rgb(17, 17, 17); fill-opacity: 1; white-space: pre;">BEAUTRIUM</text></g><g class="textpoint" transform="translate(0,-18.5)"><text x="235.07" y="425.49" text-anchor="middle" style="font-family: 'Open Sans', verdana, arial, sans-serif; font-size: 10px; fill: rgb(17, 17, 17); fill-opacity: 1; white-space: pre;">SWENSEN'S</text></g><g class="textpoint" transform="translate(0,23.5)"><text x="265.92" y="513.8" text-anchor="middle" style="font-family: 'Open Sans', verdana, arial, sans-serif; font-size: 10px; fill: rgb(17, 17, 17); fill-opacity: 1; white-space: pre;">SKECHERS</text></g><g class="textpoint" transform="translate(0,-18.5)"><text x="296.77" y="425.49" text-anchor="middle" style="font-family: 'Open Sans', verdana, arial, sans-serif; font-size: 10px; fill: rgb(17, 17, 17); fill-opacity: 1; white-space: pre;">KRUNG THAI BANK</text></g><g class="textpoint" transform="translate(0,23.5)"><text x="327.62" y="513.8" text-anchor="middle" style="font-family: 'Open Sans', verdana, arial, sans-serif; font-size: 10px; fill: rgb(17, 17, 17); fill-opacity: 1; white-space: pre;">AURORA</text></g><g class="textpoint" transform="translate(0,-27.25)"><text x="188.8" y="80.28" text-anchor="middle" style="font-family: 'Open Sans', verdana, arial, sans-serif; font-size: 10px; fill: rgb(17, 17, 17); fill-opacity: 1; white-space: pre;">CPN</text></g><g class="textpoint" transform="translate(0,-27.25)"><text x="133.27" y="200.7" text-anchor="middle" style="font-family: 'Open Sans', verdana, arial, sans-serif; font-size: 10px; fill: rgb(17, 17, 17); fill-opacity: 1; white-space: pre;">CRC</text></g><g class="textpoint" transform="translate(0,-27.25)"><text x="244.33" y="200.7" text-anchor="middle" style="font-family: 'Open Sans', verdana, arial, sans-serif; font-size: 10px; fill: rgb(17, 17, 17); fill-opacity: 1; white-space: pre;">CRG</text></g></g></g></g></g></g><g class="zerolinelayer-above"/><path class="xlines-above crisp" d="M0,0" style="fill: none;"/><path class="ylines-above crisp" d="M0,0" style="fill: none;"/><g class="overlines-above"/><g class="xaxislayer-above"/><g class="yaxislayer-above"/><g class="overaxes-above"/></g><g class="subplot x2y2"><g class="layer-subplot"><g class="shapelayer"/><g class="imagelayer"/></g><g class="minor-gridlayer"><g class="x2"/><g class="y2"/></g><g class="gridlayer"><g class="x2"/><g class="y2"/></g><g class="zerolinelayer"/><g class="layer-between"><g class="shapelayer"/><g class="imagelayer"/></g><path class="xlines-below"/><path class="ylines-below"/><g class="overlines-below"/><g class="xaxislayer-below"/><g class="yaxislayer-below"/><g class="overaxes-below"/><g class="overplot"><g class="x2y2" transform="translate(411.20000000000005,50)" clip-path="url(#clip14987fx2y2plot)"><g class="scatterlayer mlayer"><g class="trace scatter tracec24664" style="stroke-miterlimit: 2; opacity: 1;"><g class="fills"/><g class="errorbars"/><g class="lines"><path class="js-line" d="M49.98,425.49L188.8,80.28" style="vector-effect: none; fill: none; stroke: rgb(180, 180, 180); stroke-opacity: 0.5; stroke-width: 1.5px; opacity: 1;"/><path class="js-line" d="M80.83,513.8L188.8,80.28" style="vector-effect: none; fill: none; stroke: rgb(180, 180, 180); stroke-opacity: 0.5; stroke-width: 1.5px; opacity: 1;"/><path class="js-line" d="M111.68,425.49L188.8,80.28" style="vector-effect: none; fill: none; stroke: rgb(180, 180, 180); stroke-opacity: 0.5; stroke-width: 1.5px; opacity: 1;"/><path class="js-line" d="M142.53,513.8L188.8,80.28" style="vector-effect: none; fill: none; stroke: rgb(180, 180, 180); stroke-opacity: 0.5; stroke-width: 1.5px; opacity: 1;"/><path class="js-line" d="M173.38,425.49L188.8,80.28" style="vector-effect: none; fill: none; stroke: rgb(180, 180, 180); stroke-opacity: 0.5; stroke-width: 1.5px; opacity: 1;"/><path class="js-line" d="M204.22,513.8L188.8,80.28" style="vector-effect: none; fill: none; stroke: rgb(180, 180, 180); stroke-opacity: 0.5; stroke-width: 1.5px; opacity: 1;"/><path class="js-line" d="M235.07,425.49L188.8,80.28" style="vector-effect: none; fill: none; stroke: rgb(180, 180, 180); stroke-opacity: 0.5; stroke-width: 1.5px; opacity: 1;"/><path class="js-line" d="M265.92,513.8L188.8,80.28" style="vector-effect: none; fill: none; stroke: rgb(180, 180, 180); stroke-opacity: 0.5; stroke-width: 1.5px; opacity: 1;"/><path class="js-line" d="M296.77,425.49L188.8,80.28" style="vector-effect: none; fill: none; stroke: rgb(180, 180, 180); stroke-opacity: 0.5; stroke-width: 1.5px; opacity: 1;"/><path class="js-line" d="M327.62,513.8L188.8,80.28" style="vector-effect: none; fill: none; stroke: rgb(180, 180, 180); stroke-opacity: 0.5; stroke-width: 1.5px; opacity: 1;"/></g><g class="points"/><g class="text"/></g><g class="trace scatter traceda79c8" style="stroke-miterlimit: 2; opacity: 1;"><g class="fills"/><g class="errorbars"/><g class="lines"><path class="js-line" d="M188.8,80.28L133.27,200.7" style="vector-effect: none; fill: none; stroke: rgb(231, 76, 60); stroke-opacity: 0.85; stroke-width: 3.5px; opacity: 1;"/><path class="js-line" d="M188.8,80.28L244.33,200.7" style="vector-effect: none; fill: none; stroke: rgb(231, 76, 60); stroke-opacity: 0.85; stroke-width: 3.5px; opacity: 1;"/></g><g class="points"/><g class="text"/></g><g class="trace scatter tracee267c6" style="stroke-miterlimit: 2; opacity: 1;"><g class="fills"/><g class="errorbars"/><g class="lines"/><g class="points"><path class="point" transform="translate(49.98,425.49)" d="M12,0A12,12 0 1,1 0,-12A12,12 0 0,1 12,0Z" style="opacity: 0.7; stroke-width: 2px; fill: rgb(255, 193, 7); fill-opacity: 1; stroke: rgb(51, 51, 51); stroke-opacity: 1;"/><path class="point" transform="translate(80.83,513.8)" d="M12,0A12,12 0 1,1 0,-12A12,12 0 0,1 12,0Z" style="opacity: 0.7; stroke-width: 2px; fill: rgb(255, 87, 34); fill-opacity: 1; stroke: rgb(51, 51, 51); stroke-opacity: 1;"/><path class="point" transform="translate(111.68,425.49)" d="M12,0A12,12 0 1,1 0,-12A12,12 0 0,1 12,0Z" style="opacity: 0.7; stroke-width: 2px; fill: rgb(233, 30, 99); fill-opacity: 1; stroke: rgb(51, 51, 51); stroke-opacity: 1;"/><path class="point" transform="translate(142.53,513.8)" d="M12,0A12,12 0 1,1 0,-12A12,12 0 0,1 12,0Z" style="opacity: 0.7; stroke-width: 2px; fill: rgb(255, 87, 34); fill-opacity: 1; stroke: rgb(51, 51, 51); stroke-opacity: 1;"/><path class="point" transform="translate(173.38,425.49)" d="M12,0A12,12 0 1,1 0,-12A12,12 0 0,1 12,0Z" style="opacity: 0.7; stroke-width: 2px; fill: rgb(233, 30, 99); fill-opacity: 1; stroke: rgb(51, 51, 51); stroke-opacity: 1;"/><path class="point" transform="translate(204.22,513.8)" d="M12,0A12,12 0 1,1 0,-12A12,12 0 0,1 12,0Z" style="opacity: 0.7; stroke-width: 2px; fill: rgb(33, 150, 243); fill-opacity: 1; stroke: rgb(51, 51, 51); stroke-opacity: 1;"/><path class="point" transform="translate(235.07,425.49)" d="M12,0A12,12 0 1,1 0,-12A12,12 0 0,1 12,0Z" style="opacity: 0.7; stroke-width: 2px; fill: rgb(158, 158, 158); fill-opacity: 1; stroke: rgb(51, 51, 51); stroke-opacity: 1;"/><path class="point" transform="translate(265.92,513.8)" d="M12,0A12,12 0 1,1 0,-12A12,12 0 0,1 12,0Z" style="opacity: 0.7; stroke-width: 2px; fill: rgb(255, 87, 34); fill-opacity: 1; stroke: rgb(51, 51, 51); stroke-opacity: 1;"/><path class="point" transform="translate(296.77,425.49)" d="M12,0A12,12 0 1,1 0,-12A12,12 0 0,1 12,0Z" style="opacity: 0.7; stroke-width: 2px; fill: rgb(255, 87, 34); fill-opacity: 1; stroke: rgb(51, 51, 51); stroke-opacity: 1;"/><path class="point" transform="translate(327.62,513.8)" d="M12,0A12,12 0 1,1 0,-12A12,12 0 0,1 12,0Z" style="opacity: 0.7; stroke-width: 2px; fill: rgb(76, 175, 80); fill-opacity: 1; stroke: rgb(51, 51, 51); stroke-opacity: 1;"/><path class="point" transform="translate(188.8,80.28)" d="M24.7,0L0,24.7L-24.7,0L0,-24.7Z" style="opacity: 0.7; stroke-width: 2px; fill: rgb(231, 76, 60); fill-opacity: 1; stroke: rgb(51, 51, 51); stroke-opacity: 1;"/><path class="point" transform="translate(133.27,200.7)" d="M24.7,0L0,24.7L-24.7,0L0,-24.7Z" style="opacity: 0.7; stroke-width: 2px; fill: rgb(41, 128, 185); fill-opacity: 1; stroke: rgb(51, 51, 51); stroke-opacity: 1;"/><path class="point" transform="translate(244.33,200.7)" d="M24.7,0L0,24.7L-24.7,0L0,-24.7Z" style="opacity: 0.7; stroke-width: 2px; fill: rgb(39, 174, 96); fill-opacity: 1; stroke: rgb(51, 51, 51); stroke-opacity: 1;"/></g><g class="text"><g class="textpoint" transform="translate(0,-18.5)"><text x="49.98" y="425.49" text-anchor="middle" style="font-family: 'Open Sans', verdana, arial, sans-serif; font-size: 10px; fill: rgb(17, 17, 17); fill-opacity: 1; white-space: pre;">ATM SIAM COMMERCIAL BANK</text></g><g class="textpoint" transform="translate(0,23.5)"><text x="80.83" y="513.8" text-anchor="middle" style="font-family: 'Open Sans', verdana, arial, sans-serif; font-size: 10px; fill: rgb(17, 17, 17); fill-opacity: 1; white-space: pre;">คำพูน</text></g><g class="textpoint" transform="translate(0,-18.5)"><text x="111.68" y="425.49" text-anchor="middle" style="font-family: 'Open Sans', verdana, arial, sans-serif; font-size: 10px; fill: rgb(17, 17, 17); fill-opacity: 1; white-space: pre;">DILAVIE</text></g><g class="textpoint" transform="translate(0,23.5)"><text x="142.53" y="513.8" text-anchor="middle" style="font-family: 'Open Sans', verdana, arial, sans-serif; font-size: 10px; fill: rgb(17, 17, 17); fill-opacity: 1; white-space: pre;">S&amp;P SIMPLY DELICIOUS</text></g><g class="textpoint" transform="translate(0,-18.5)"><text x="173.38" y="425.49" text-anchor="middle" style="font-family: 'Open Sans', verdana, arial, sans-serif; font-size: 10px; fill: rgb(17, 17, 17); fill-opacity: 1; white-space: pre;">CROCS</text></g><g class="textpoint" transform="translate(0,23.5)"><text x="204.22" y="513.8" text-anchor="middle" style="font-family: 'Open Sans', verdana, arial, sans-serif; font-size: 10px; fill: rgb(17, 17, 17); fill-opacity: 1; white-space: pre;">TG FONE</text></g><g class="textpoint" transform="translate(0,-18.5)"><text x="235.07" y="425.49" text-anchor="middle" style="font-family: 'Open Sans', verdana, arial, sans-serif; font-size: 10px; fill: rgb(17, 17, 17); fill-opacity: 1; white-space: pre;">AKKARA BANGKOK</text></g><g class="textpoint" transform="translate(0,23.5)"><text x="265.92" y="513.8" text-anchor="middle" style="font-family: 'Open Sans', verdana, arial, sans-serif; font-size: 10px; fill: rgb(17, 17, 17); fill-opacity: 1; white-space: pre;">YOLE</text></g><g class="textpoint" transform="translate(0,-18.5)"><text x="296.77" y="425.49" text-anchor="middle" style="font-family: 'Open Sans', verdana, arial, sans-serif; font-size: 10px; fill: rgb(17, 17, 17); fill-opacity: 1; white-space: pre;">STARBUCKS COFFEE</text></g><g class="textpoint" transform="translate(0,23.5)"><text x="327.62" y="513.8" text-anchor="middle" style="font-family: 'Open Sans', verdana, arial, sans-serif; font-size: 10px; fill: rgb(17, 17, 17); fill-opacity: 1; white-space: pre;">WATSONS</text></g><g class="textpoint" transform="translate(0,-27.25)"><text x="188.8" y="80.28" text-anchor="middle" style="font-family: 'Open Sans', verdana, arial, sans-serif; font-size: 10px; fill: rgb(17, 17, 17); fill-opacity: 1; white-space: pre;">CPN</text></g><g class="textpoint" transform="translate(0,-27.25)"><text x="133.27" y="200.7" text-anchor="middle" style="font-family: 'Open Sans', verdana, arial, sans-serif; font-size: 10px; fill: rgb(17, 17, 17); fill-opacity: 1; white-space: pre;">CRC</text></g><g class="textpoint" transform="translate(0,-27.25)"><text x="244.33" y="200.7" text-anchor="middle" style="font-family: 'Open Sans', verdana, arial, sans-serif; font-size: 10px; fill: rgb(17, 17, 17); fill-opacity: 1; white-space: pre;">CRG</text></g></g></g></g></g></g><g class="zerolinelayer-above"/><path class="xlines-above crisp" d="M0,0" style="fill: none;"/><path class="ylines-above crisp" d="M0,0" style="fill: none;"/><g class="overlines-above"/><g class="xaxislayer-above"/><g class="yaxislayer-above"/><g class="overaxes-above"/></g><g class="subplot x3y3"><g class="layer-subplot"><g class="shapelayer"/><g class="imagelayer"/></g><g class="minor-gridlayer"><g class="x3"/><g class="y3"/></g><g class="gridlayer"><g class="x3"/><g class="y3"/></g><g class="zerolinelayer"/><g class="layer-between"><g class="shapelayer"/><g class="imagelayer"/></g><path class="xlines-below"/><path class="ylines-below"/><g class="overlines-below"/><g class="xaxislayer-below"/><g class="yaxislayer-below"/><g class="overaxes-below"/><g class="overplot"><g class="x3y3" transform="translate(812.4000000000001,50)" clip-path="url(#clip14987fx3y3plot)"><g class="scatterlayer mlayer"><g class="trace scatter tracea47542" style="stroke-miterlimit: 2; opacity: 1;"><g class="fills"/><g class="errorbars"/><g class="lines"><path class="js-line" d="M49.98,425.49L188.8,80.28" style="vector-effect: none; fill: none; stroke: rgb(180, 180, 180); stroke-opacity: 0.5; stroke-width: 1.5px; opacity: 1;"/><path class="js-line" d="M80.83,513.8L188.8,80.28" style="vector-effect: none; fill: none; stroke: rgb(180, 180, 180); stroke-opacity: 0.5; stroke-width: 1.5px; opacity: 1;"/><path class="js-line" d="M111.68,425.49L188.8,80.28" style="vector-effect: none; fill: none; stroke: rgb(180, 180, 180); stroke-opacity: 0.5; stroke-width: 1.5px; opacity: 1;"/><path class="js-line" d="M142.53,513.8L188.8,80.28" style="vector-effect: none; fill: none; stroke: rgb(180, 180, 180); stroke-opacity: 0.5; stroke-width: 1.5px; opacity: 1;"/><path class="js-line" d="M173.38,425.49L188.8,80.28" style="vector-effect: none; fill: none; stroke: rgb(180, 180, 180); stroke-opacity: 0.5; stroke-width: 1.5px; opacity: 1;"/><path class="js-line" d="M204.22,513.8L188.8,80.28" style="vector-effect: none; fill: none; stroke: rgb(180, 180, 180); stroke-opacity: 0.5; stroke-width: 1.5px; opacity: 1;"/><path class="js-line" d="M235.07,425.49L188.8,80.28" style="vector-effect: none; fill: none; stroke: rgb(180, 180, 180); stroke-opacity: 0.5; stroke-width: 1.5px; opacity: 1;"/><path class="js-line" d="M265.92,513.8L188.8,80.28" style="vector-effect: none; fill: none; stroke: rgb(180, 180, 180); stroke-opacity: 0.5; stroke-width: 1.5px; opacity: 1;"/><path class="js-line" d="M296.77,425.49L188.8,80.28" style="vector-effect: none; fill: none; stroke: rgb(180, 180, 180); stroke-opacity: 0.5; stroke-width: 1.5px; opacity: 1;"/><path class="js-line" d="M327.62,513.8L188.8,80.28" style="vector-effect: none; fill: none; stroke: rgb(180, 180, 180); stroke-opacity: 0.5; stroke-width: 1.5px; opacity: 1;"/></g><g class="points"/><g class="text"/></g><g class="trace scatter trace1c44c0" style="stroke-miterlimit: 2; opacity: 1;"><g class="fills"/><g class="errorbars"/><g class="lines"><path class="js-line" d="M188.8,80.28L133.27,200.7" style="vector-effect: none; fill: none; stroke: rgb(231, 76, 60); stroke-opacity: 0.85; stroke-width: 3.5px; opacity: 1;"/><path class="js-line" d="M188.8,80.28L244.33,200.7" style="vector-effect: none; fill: none; stroke: rgb(231, 76, 60); stroke-opacity: 0.85; stroke-width: 3.5px; opacity: 1;"/></g><g class="points"/><g class="text"/></g><g class="trace scatter traceab0402" style="stroke-miterlimit: 2; opacity: 1;"><g class="fills"/><g class="errorbars"/><g class="lines"><path class="js-line" d="M142.53,513.8L244.33,200.7" style="vector-effect: none; fill: none; stroke: rgb(52, 152, 219); stroke-opacity: 0.7; stroke-dasharray: 9px, 9px; stroke-width: 2px; opacity: 1;"/></g><g class="points"/><g class="text"/></g><g class="trace scatter trace0447a8" style="stroke-miterlimit: 2; opacity: 1;"><g class="fills"/><g class="errorbars"/><g class="lines"/><g class="points"><path class="point" transform="translate(49.98,425.49)" d="M12,0A12,12 0 1,1 0,-12A12,12 0 0,1 12,0Z" style="opacity: 0.7; stroke-width: 2px; fill: rgb(76, 175, 80); fill-opacity: 1; stroke: rgb(51, 51, 51); stroke-opacity: 1;"/><path class="point" transform="translate(80.83,513.8)" d="M12,0A12,12 0 1,1 0,-12A12,12 0 0,1 12,0Z" style="opacity: 0.7; stroke-width: 2px; fill: rgb(255, 87, 34); fill-opacity: 1; stroke: rgb(51, 51, 51); stroke-opacity: 1;"/><path class="point" transform="translate(111.68,425.49)" d="M12,0A12,12 0 1,1 0,-12A12,12 0 0,1 12,0Z" style="opacity: 0.7; stroke-width: 2px; fill: rgb(255, 87, 34); fill-opacity: 1; stroke: rgb(51, 51, 51); stroke-opacity: 1;"/><path class="point" transform="translate(142.53,513.8)" d="M12,0A12,12 0 1,1 0,-12A12,12 0 0,1 12,0Z" style="opacity: 0.7; stroke-width: 2px; fill: rgb(255, 87, 34); fill-opacity: 1; stroke: rgb(51, 51, 51); stroke-opacity: 1;"/><path class="point" transform="translate(173.38,425.49)" d="M12,0A12,12 0 1,1 0,-12A12,12 0 0,1 12,0Z" style="opacity: 0.7; stroke-width: 2px; fill: rgb(233, 30, 99); fill-opacity: 1; stroke: rgb(51, 51, 51); stroke-opacity: 1;"/><path class="point" transform="translate(204.22,513.8)" d="M12,0A12,12 0 1,1 0,-12A12,12 0 0,1 12,0Z" style="opacity: 0.7; stroke-width: 2px; fill: rgb(233, 30, 99); fill-opacity: 1; stroke: rgb(51, 51, 51); stroke-opacity: 1;"/><path class="point" transform="translate(235.07,425.49)" d="M12,0A12,12 0 1,1 0,-12A12,12 0 0,1 12,0Z" style="opacity: 0.7; stroke-width: 2px; fill: rgb(96, 125, 139); fill-opacity: 1; stroke: rgb(51, 51, 51); stroke-opacity: 1;"/><path class="point" transform="translate(265.92,513.8)" d="M12,0A12,12 0 1,1 0,-12A12,12 0 0,1 12,0Z" style="opacity: 0.7; stroke-width: 2px; fill: rgb(233, 30, 99); fill-opacity: 1; stroke: rgb(51, 51, 51); stroke-opacity: 1;"/><path class="point" transform="translate(296.77,425.49)" d="M12,0A12,12 0 1,1 0,-12A12,12 0 0,1 12,0Z" style="opacity: 0.7; stroke-width: 2px; fill: rgb(33, 150, 243); fill-opacity: 1; stroke: rgb(51, 51, 51); stroke-opacity: 1;"/><path class="point" transform="translate(327.62,513.8)" d="M12,0A12,12 0 1,1 0,-12A12,12 0 0,1 12,0Z" style="opacity: 0.7; stroke-width: 2px; fill: rgb(33, 150, 243); fill-opacity: 1; stroke: rgb(51, 51, 51); stroke-opacity: 1;"/><path class="point" transform="translate(188.8,80.28)" d="M24.7,0L0,24.7L-24.7,0L0,-24.7Z" style="opacity: 0.7; stroke-width: 2px; fill: rgb(231, 76, 60); fill-opacity: 1; stroke: rgb(51, 51, 51); stroke-opacity: 1;"/><path class="point" transform="translate(133.27,200.7)" d="M24.7,0L0,24.7L-24.7,0L0,-24.7Z" style="opacity: 0.7; stroke-width: 2px; fill: rgb(41, 128, 185); fill-opacity: 1; stroke: rgb(51, 51, 51); stroke-opacity: 1;"/><path class="point" transform="translate(244.33,200.7)" d="M24.7,0L0,24.7L-24.7,0L0,-24.7Z" style="opacity: 0.7; stroke-width: 2px; fill: rgb(39, 174, 96); fill-opacity: 1; stroke: rgb(51, 51, 51); stroke-opacity: 1;"/></g><g class="text"><g class="textpoint" transform="translate(0,-18.5)"><text x="49.98" y="425.49" text-anchor="middle" style="font-family: 'Open Sans', verdana, arial, sans-serif; font-size: 10px; fill: rgb(17, 17, 17); fill-opacity: 1; white-space: pre;">WATSONS</text></g><g class="textpoint" transform="translate(0,23.5)"><text x="80.83" y="513.8" text-anchor="middle" style="font-family: 'Open Sans', verdana, arial, sans-serif; font-size: 10px; fill: rgb(17, 17, 17); fill-opacity: 1; white-space: pre;">STARBUCKS COFFEE</text></g><g class="textpoint" transform="translate(0,-18.5)"><text x="111.68" y="425.49" text-anchor="middle" style="font-family: 'Open Sans', verdana, arial, sans-serif; font-size: 10px; fill: rgb(17, 17, 17); fill-opacity: 1; white-space: pre;">CAFE AMAZON</text></g><g class="textpoint" transform="translate(0,23.5)"><text x="142.53" y="513.8" text-anchor="middle" style="font-family: 'Open Sans', verdana, arial, sans-serif; font-size: 10px; fill: rgb(17, 17, 17); fill-opacity: 1; white-space: pre;">KFC</text></g><g class="textpoint" transform="translate(0,-18.5)"><text x="173.38" y="425.49" text-anchor="middle" style="font-family: 'Open Sans', verdana, arial, sans-serif; font-size: 10px; fill: rgb(17, 17, 17); fill-opacity: 1; white-space: pre;">CROCS</text></g><g class="textpoint" transform="translate(0,23.5)"><text x="204.22" y="513.8" text-anchor="middle" style="font-family: 'Open Sans', verdana, arial, sans-serif; font-size: 10px; fill: rgb(17, 17, 17); fill-opacity: 1; white-space: pre;">SKECHERS</text></g><g class="textpoint" transform="translate(0,-18.5)"><text x="235.07" y="425.49" text-anchor="middle" style="font-family: 'Open Sans', verdana, arial, sans-serif; font-size: 10px; fill: rgb(17, 17, 17); fill-opacity: 1; white-space: pre;">GIORDANO</text></g><g class="textpoint" transform="translate(0,23.5)"><text x="265.92" y="513.8" text-anchor="middle" style="font-family: 'Open Sans', verdana, arial, sans-serif; font-size: 10px; fill: rgb(17, 17, 17); fill-opacity: 1; white-space: pre;">SABINA</text></g><g class="textpoint" transform="translate(0,-18.5)"><text x="296.77" y="425.49" text-anchor="middle" style="font-family: 'Open Sans', verdana, arial, sans-serif; font-size: 10px; fill: rgb(17, 17, 17); fill-opacity: 1; white-space: pre;">AIS</text></g><g class="textpoint" transform="translate(0,23.5)"><text x="327.62" y="513.8" text-anchor="middle" style="font-family: 'Open Sans', verdana, arial, sans-serif; font-size: 10px; fill: rgb(17, 17, 17); fill-opacity: 1; white-space: pre;">TRUE</text></g><g class="textpoint" transform="translate(0,-27.25)"><text x="188.8" y="80.28" text-anchor="middle" style="font-family: 'Open Sans', verdana, arial, sans-serif; font-size: 10px; fill: rgb(17, 17, 17); fill-opacity: 1; white-space: pre;">CPN</text></g><g class="textpoint" transform="translate(0,-27.25)"><text x="133.27" y="200.7" text-anchor="middle" style="font-family: 'Open Sans', verdana, arial, sans-serif; font-size: 10px; fill: rgb(17, 17, 17); fill-opacity: 1; white-space: pre;">CRC</text></g><g class="textpoint" transform="translate(0,-27.25)"><text x="244.33" y="200.7" text-anchor="middle" style="font-family: 'Open Sans', verdana, arial, sans-serif; font-size: 10px; fill: rgb(17, 17, 17); fill-opacity: 1; white-space: pre;">CRG</text></g></g></g></g></g></g><g class="zerolinelayer-above"/><path class="xlines-above crisp" d="M0,0" style="fill: none;"/><path class="ylines-above crisp" d="M0,0" style="fill: none;"/><g class="overlines-above"/><g class="xaxislayer-above"/><g class="yaxislayer-above"/><g class="overaxes-above"/></g></g><g class="polarlayer"/><g class="smithlayer"/><g class="ternarylayer"/><g class="geolayer"/><g class="funnelarealayer"/><g class="pielayer"/><g class="iciclelayer"/><g class="treemaplayer"/><g class="sunburstlayer"/><g class="glimages"/><defs id="topdefs-14987f"><g class="clips"/><clipPath id="legend14987f"><rect width="104" height="67" x="1" y="1"/></clipPath></defs><g class="layer-above"><g class="imagelayer"/><g class="shapelayer"/></g><g class="infolayer"><g class="legend" pointer-events="all" transform="translate(21.8,55.7)"><rect class="bg" shape-rendering="crispEdges" style="stroke: rgb(204, 204, 204); stroke-opacity: 1; fill: rgb(255, 255, 255); fill-opacity: 0.85; stroke-width: 1px;" width="105" height="68" x="0.5" y="0.5"/><g class="scrollbox" transform="" clip-path="url(#legend14987f)"><g class="groups"><g class="traces" transform="translate(1,15.5)" style="opacity: 1;"><text class="legendtext" text-anchor="start" x="40" y="3.5100000000000002" style="font-family: 'Open Sans', verdana, arial, sans-serif; font-size: 9px; fill: rgb(42, 63, 95); fill-opacity: 1; white-space: pre;">CPN→Tenant</text><g class="layers" style="opacity: 1;"><g class="legendfill"/><g class="legendlines"><path class="js-line" d="M5,0h30" style="fill: none; stroke: rgb(180, 180, 180); stroke-opacity: 0.5; stroke-width: 1.5px;"/></g><g class="legendsymbols"><g class="legendpoints"/></g></g><rect class="legendtoggle" x="0" y="-9.5" width="98.1796875" height="19" style="fill: rgb(0, 0, 0); fill-opacity: 0;"/></g><g class="traces" transform="translate(1,34.5)" style="opacity: 1;"><text class="legendtext" text-anchor="start" x="40" y="3.5100000000000002" style="font-family: 'Open Sans', verdana, arial, sans-serif; font-size: 9px; fill: rgb(42, 63, 95); fill-opacity: 1; white-space: pre;">Alliance</text><g class="layers" style="opacity: 1;"><g class="legendfill"/><g class="legendlines"><path class="js-line" d="M5,0h30" style="fill: none; stroke: rgb(231, 76, 60); stroke-opacity: 0.85; stroke-width: 3.5px;"/></g><g class="legendsymbols"><g class="legendpoints"/></g></g><rect class="legendtoggle" x="0" y="-9.5" width="98.1796875" height="19" style="fill: rgb(0, 0, 0); fill-opacity: 0;"/></g><g class="traces" transform="translate(1,53.5)" style="opacity: 1;"><text class="legendtext" text-anchor="start" x="40" y="3.5100000000000002" style="font-family: 'Open Sans', verdana, arial, sans-serif; font-size: 9px; fill: rgb(42, 63, 95); fill-opacity: 1; white-space: pre;">Ownership</text><g class="layers" style="opacity: 1;"><g class="legendfill"/><g class="legendlines"><path class="js-line" d="M5,0h30" style="fill: none; stroke: rgb(52, 152, 219); stroke-opacity: 0.7; stroke-dasharray: 9px, 9px; stroke-width: 2px;"/></g><g class="legendsymbols"><g class="legendpoints"/></g></g><rect class="legendtoggle" x="0" y="-9.5" width="98.1796875" height="19" style="fill: rgb(0, 0, 0); fill-opacity: 0;"/></g></g></g><rect class="scrollbar" rx="20" ry="3" width="0" height="0" style="fill: rgb(128, 139, 164); fill-opacity: 1;" x="0" y="0"/></g><g class="g-gtitle"/><g class="annotation" data-index="0" style="opacity: 1;"><g class="annotation-text-g" transform="rotate(0,198.8,38.5)"><g class="cursor-pointer" transform="translate(168,27)"><rect class="bg" x="0.5" y="0.5" width="61" height="22" style="stroke-width: 1px; stroke: rgb(0, 0, 0); stroke-opacity: 0; fill: rgb(0, 0, 0); fill-opacity: 0;"/><text class="annotation-text" text-anchor="middle" x="30.859375" y="18" style="font-family: 'Open Sans', verdana, arial, sans-serif; font-size: 16px; fill: rgb(42, 63, 95); fill-opacity: 1; white-space: pre;">Degree</text></g></g></g><g class="annotation" data-index="1" style="opacity: 1;"><g class="annotation-text-g" transform="rotate(0,600,38.5)"><g class="cursor-pointer" transform="translate(546,27)"><rect class="bg" x="0.5" y="0.5" width="108" height="22" style="stroke-width: 1px; stroke: rgb(0, 0, 0); stroke-opacity: 0; fill: rgb(0, 0, 0); fill-opacity: 0;"/><text class="annotation-text" text-anchor="middle" x="54.7109375" y="18" style="font-family: 'Open Sans', verdana, arial, sans-serif; font-size: 16px; fill: rgb(42, 63, 95); fill-opacity: 1; white-space: pre;">Betweenness</text></g></g></g><g class="annotation" data-index="2" style="opacity: 1;"><g class="annotation-text-g" transform="rotate(0,1001.2,38.5)"><g class="cursor-pointer" transform="translate(952,27)"><rect class="bg" x="0.5" y="0.5" width="98" height="22" style="stroke-width: 1px; stroke: rgb(0, 0, 0); stroke-opacity: 0; fill: rgb(0, 0, 0); fill-opacity: 0;"/><text class="annotation-text" text-anchor="middle" x="49.0078125" y="18" style="font-family: 'Open Sans', verdana, arial, sans-serif; font-size: 16px; fill: rgb(42, 63, 95); fill-opacity: 1; white-space: pre;">Eigenvector</text></g></g></g></g></svg>