<svg class="main-svg" xmlns="http://www.w3.org/2000/svg" xmlns:xlink="http://www.w3.org/1999/xlink" width="800" height="650" style="" viewBox="0 0 800 650"><rect x="0" y="0" width="800" height="650" style="fill: rgb(255, 255, 255); fill-opacity: 1;"/><defs id="defs-4653f2"><g class="clips"><clipPath id="clip4653f2xyplot" class="plotclip"><rect width="382.2" height="570"/></clipPath><clipPath id="clip4653f2x2y2plot" class="plotclip"><rect width="382.2" height="570"/></clipPath><clipPath class="axesclip" id="clip4653f2x"><rect x="10" y="0" width="382.2" height="650"/></clipPath><clipPath class="axesclip" id="clip4653f2y"><rect x="0" y="50" width="800" height="570"/></clipPath><clipPath class="axesclip" id="clip4653f2xy"><rect x="10" y="50" width="382.2" height="570"/></clipPath><clipPath class="axesclip" id="clip4653f2y2"><rect x="0" y="50" width="800" height="570"/></clipPath><clipPath class="axesclip" id="clip4653f2xy2"><rect x="10" y="50" width="382.2" height="570"/></clipPath><clipPath class="axesclip" id="clip4653f2x2"><rect x="407.8" y="0" width="382.2" height="650"/></clipPath><clipPath class="axesclip" id="clip4653f2x2y"><rect x="407.8" y="50" width="382.2" height="570"/></clipPath><clipPath class="axesclip" id="clip4653f2x2y2"><rect x="407.8" y="50" width="382.2" height="570"/></clipPath></g><g class="gradients"/><g class="patterns"/></defs><g class="bglayer"><rect class="bg" x="10" y="50" width="382.2" height="570" style="fill: rgb(0, 0, 0); fill-opacity: 0; stroke-width: 0;"/><rect class="bg" x="407.8" y="50" width="382.2" height="570" style="fill: rgb(0, 0, 0); fill-opacity: 0; stroke-width: 0;"/></g><g class="layer-below"><g class="imagelayer"/><g class="shapelayer"/></g><g class="cartesianlayer"><g class="subplot xy"><g class="layer-subplot"><g class="shapelayer"/><g class="imagelayer"/></g><g class="minor-gridlayer"><g class="x"/><g class="y"/></g><g class="gridlayer"><g class="x"/><g class="y"/></g><g class="zerolinelayer"/><g class="layer-between"><g class="shapelayer"/><g class="imagelayer"/></g><path class="xlines-below"/><path class="ylines-below"/><g class="overlines-below"/><g class="xaxislayer-below"/><g class="yaxislayer-below"/><g class="overaxes-below"/><g class="overplot"><g class="xy" transform="translate(10,50)" clip-path="url(#clip4653f2xyplot)"><g class="scatterlayer mlayer"><g class="trace scatter trace44ea7c" style="stroke-miterlimit: 2; opacity: 1;"><g class="fills"/><g class="errorbars"/><g class="lines"><path class="js-line" d="M50.59,425.49L191.1,80.28" style="vector-effect: none; fill: none; stroke: rgb(180, 180, 180); stroke-opacity: 0.5; stroke-width: 1.5px; opacity: 1;"/><path class="js-line" d="M81.81,513.8L191.1,80.28" style="vector-effect: none; fill: none; stroke: rgb(180, 180, 180); stroke-opacity: 0.5; stroke-width: 1.5px; opacity: 1;"/><path class="js-line" d="M113.04,425.49L191.1,80.28" style="vector-effect: none; fill: none; stroke: rgb(180, 180, 180); stroke-opacity: 0.5; stroke-width: 1.5px; opacity: 1;"/><path class="js-line" d="M144.26,513.8L191.1,80.28" style="vector-effect: none; fill: none; stroke: rgb(180, 180, 180); stroke-opacity: 0.5; stroke-width: 1.5px; opacity: 1;"/><path class="js-line" d="M175.49,425.49L191.1,80.28" style="vector-effect: none; fill: none; stroke: rgb(180, 180, 180); stroke-opacity: 0.5; stroke-width: 1.5px; opacity: 1;"/><path class="js-line" d="M206.71,513.8L191.1,80.28" style="vector-effect: none; fill: none; stroke: rgb(180, 180, 180); stroke-opacity: 0.5; stroke-width: 1.5px; opacity: 1;"/><path class="js-line" d="M237.94,425.49L191.1,80.28" style="vector-effect: none; fill: none; stroke: rgb(180, 180, 180); stroke-opacity: 0.5; stroke-width: 1.5px; opacity: 1;"/><path class="js-line" d="M269.16,513.8L191.1,80.28" style="vector-effect: none; fill: none; stroke: rgb(180, 180, 180); stroke-opacity: 0.5; stroke-width: 1.5px; opacity: 1;"/><path class="js-line" d="M300.39,425.49L191.1,80.28" style="vector-effect: none; fill: none; stroke: rgb(180, 180, 180); stroke-opacity: 0.5; stroke-width: 1.5px; opacity: 1;"/><path class="js-line" d="M331.61,513.8L191.1,80.28" style="vector-effect: none; fill: none; stroke: rgb(180, 180, 180); stroke-opacity: 0.5; stroke-width: 1.5px; opacity: 1;"/></g><g class="points"/><g class="text"/></g><g class="trace scatter trace85bdf1" style="stroke-miterlimit: 2; opacity: 1;"><g class="fills"/><g class="errorbars"/><g class="lines"><path class="js-line" d="M191.1,80.28L134.89,200.7" style="vector-effect: none; fill: none; stroke: rgb(231, 76, 60); stroke-opacity: 0.85; stroke-width: 3.5px; opacity: 1;"/><path class="js-line" d="M191.1,80.28L247.31,200.7" style="vector-effect: none; fill: none; stroke: rgb(231, 76, 60); stroke-opacity: 0.85; stroke-width: 3.5px; opacity: 1;"/></g><g class="points"/><g class="text"/></g><g class="trace scatter trace822817" style="stroke-miterlimit: 2; opacity: 1;"><g class="fills"/><g class="errorbars"/><g class="lines"><path class="js-line" d="M144.26,513.8L247.31,200.7" style="vector-effect: none; fill: none; stroke: rgb(52, 152, 219); stroke-opacity: 0.7; stroke-dasharray: 9px, 9px; stroke-width: 2px; opacity: 1;"/></g><g class="points"/><g class="text"/></g><g class="trace scatter traced16c59" style="stroke-miterlimit: 2; opacity: 1;"><g class="fills"/><g class="errorbars"/><g class="lines"/><g class="points"><path class="point" transform="translate(50.59,425.49)" d="M12,0A12,12 0 1,1 0,-12A12,12 0 0,1 12,0Z" style="opacity: 0.7; stroke-width: 2px; fill: rgb(255, 87, 34); fill-opacity: 1; stroke: rgb(51, 51, 51); stroke-opacity: 1;"/><path class="point" transform="translate(81.81,513.8)" d="M12,0A12,12 0 1,1 0,-12A12,12 0 0,1 12,0Z" style="opacity: 0.7; stroke-width: 2px; fill: rgb(76, 175, 80); fill-opacity: 1; stroke: rgb(51, 51, 51); stroke-opacity: 1;"/><path class="point" transform="translate(113.04,425.49)" d="M12,0A12,12 0 1,1 0,-12A12,12 0 0,1 12,0Z" style="opacity: 0.7; stroke-width: 2px; fill: rgb(255, 87, 34); fill-opacity: 1; stroke: rgb(51, 51, 51); stroke-opacity: 1;"/><path class="point" transform="translate(144.26,513.8)" d="M12,0A12,12 0 1,1 0,-12A12,12 0 0,1 12,0Z" style="opacity: 0.7; stroke-width: 2px; fill: rgb(255, 87, 34); fill-opacity: 1; stroke: rgb(51, 51, 51); stroke-opacity: 1;"/><path class="point" transform="translate(175.49,425.49)" d="M12,0A12,12 0 1,1 0,-12A12,12 0 0,1 12,0Z" style="opacity: 0.7; stroke-width: 2px; fill: rgb(76, 175, 80); fill-opacity: 1; stroke: rgb(51, 51, 51); stroke-opacity: 1;"/><path class="point" transform="translate(206.71,513.8)" d="M12,0A12,12 0 1,1 0,-12A12,12 0 0,1 12,0Z" style="opacity: 0.7; stroke-width: 2px; fill: rgb(233, 30, 99); fill-opacity: 1; stroke: rgb(51, 51, 51); stroke-opacity: 1;"/><path class="point" transform="translate(237.94,425.49)" d="M12,0A12,12 0 1,1 0,-12A12,12 0 0,1 12,0Z" style="opacity: 0.7; stroke-width: 2px; fill: rgb(255, 193, 7); fill-opacity: 1; stroke: rgb(51, 51, 51); stroke-opacity: 1;"/><path class="point" transform="translate(269.16,513.8)" d="M12,0A12,12 0 1,1 0,-12A12,12 0 0,1 12,0Z" style="opacity: 0.7; stroke-width: 2px; fill: rgb(255, 87, 34); fill-opacity: 1; stroke: rgb(51, 51, 51); stroke-opacity: 1;"/><path class="point" transform="translate(300.39,425.49)" d="M12,0A12,12 0 1,1 0,-12A12,12 0 0,1 12,0Z" style="opacity: 0.7; stroke-width: 2px; fill: rgb(255, 193, 7); fill-opacity: 1; stroke: rgb(51, 51, 51); stroke-opacity: 1;"/><path class="point" transform="translate(331.61,513.8)" d="M12,0A12,12 0 1,1 0,-12A12,12 0 0,1 12,0Z" style="opacity: 0.7; stroke-width: 2px; fill: rgb(255, 87, 34); fill-opacity: 1; stroke: rgb(51, 51, 51); stroke-opacity: 1;"/><path class="point" transform="translate(191.1,80.28)" d="M24.7,0L0,24.7L-24.7,0L0,-24.7Z" style="opacity: 0.7; stroke-width: 2px; fill: rgb(231, 76, 60); fill-opacity: 1; stroke: rgb(51, 51, 51); stroke-opacity: 1;"/><path class="point" transform="translate(134.89,200.7)" d="M24.7,0L0,24.7L-24.7,0L0,-24.7Z" style="opacity: 0.7; stroke-width: 2px; fill: rgb(41, 128, 185); fill-opacity: 1; stroke: rgb(51, 51, 51); stroke-opacity: 1;"/><path class="point" transform="translate(247.31,200.7)" d="M24.7,0L0,24.7L-24.7,0L0,-24.7Z" style="opacity: 0.7; stroke-width: 2px; fill: rgb(39, 174, 96); fill-opacity: 1; stroke: rgb(51, 51, 51); stroke-opacity: 1;"/></g><g class="text"><g class="textpoint" transform="translate(0,-18.5)"><text x="50.59" y="425.49" text-anchor="middle" style="font-family: 'Open Sans', verdana, arial, sans-serif; font-size: 10px; fill: rgb(17, 17, 17); fill-opacity: 1; white-space: pre;">STARBUCKS COFFEE</text></g><g class="textpoint" transform="translate(0,23.5)"><text x="81.81" y="513.8" text-anchor="middle" style="font-family: 'Open Sans', verdana, arial, sans-serif; font-size: 10px; fill: rgb(17, 17, 17); fill-opacity: 1; white-space: pre;">WATSONS</text></g><g class="textpoint" transform="translate(0,-18.5)"><text x="113.04" y="425.49" text-anchor="middle" style="font-family: 'Open Sans', verdana, arial, sans-serif; font-size: 10px; fill: rgb(17, 17, 17); fill-opacity: 1; white-space: pre;">CAFE AMAZON</text></g><g class="textpoint" transform="translate(0,23.5)"><text x="144.26" y="513.8" text-anchor="middle" style="font-family: 'Open Sans', verdana, arial, sans-serif; font-size: 10px; fill: rgb(17, 17, 17); fill-opacity: 1; white-space: pre;">KFC</text></g><g class="textpoint" transform="translate(0,-18.5)"><text x="175.49" y="425.49" text-anchor="middle" style="font-family: 'Open Sans', verdana, arial, sans-serif; font-size: 10px; fill: rgb(17, 17, 17); fill-opacity: 1; white-space: pre;">BEAUTRIUM</text></g><g class="textpoint" transform="translate(0,23.5)"><text x="206.71" y="513.8" text-anchor="middle" style="font-family: 'Open Sans', verdana, arial, sans-serif; font-size: 10px; fill: rgb(17, 17, 17); fill-opacity: 1; white-space: pre;">CROCS</text></g><g class="textpoint" transform="translate(0,-18.5)"><text x="237.94" y="425.49" text-anchor="middle" style="font-family: 'Open Sans', verdana, arial, sans-serif; font-size: 10px; fill: rgb(17, 17, 17); fill-opacity: 1; white-space: pre;">BANGKOK BANK</text></g><g class="textpoint" transform="translate(0,23.5)"><text x="269.16" y="513.8" text-anchor="middle" style="font-family: 'Open Sans', verdana, arial, sans-serif; font-size: 10px; fill: rgb(17, 17, 17); fill-opacity: 1; white-space: pre;">FUJI JAPANESE RESTAURANT</text></g><g class="textpoint" transform="translate(0,-18.5)"><text x="300.39" y="425.49" text-anchor="middle" style="font-family: 'Open Sans', verdana, arial, sans-serif; font-size: 10px; fill: rgb(17, 17, 17); fill-opacity: 1; white-space: pre;">SIAM COMMERCIAL BANK</text></g><g class="textpoint" transform="translate(0,23.5)"><text x="331.61" y="513.8" text-anchor="middle" style="font-family: 'Open Sans', verdana, arial, sans-serif; font-size: 10px; fill: rgb(17, 17, 17); fill-opacity: 1; white-space: pre;">SWENSEN'S</text></g><g class="textpoint" transform="translate(0,-27.25)"><text x="191.1" y="80.28" text-anchor="middle" style="font-family: 'Open Sans', verdana, arial, sans-serif; font-size: 10px; fill: rgb(17, 17, 17); fill-opacity: 1; white-space: pre;">CPN</text></g><g class="textpoint" transform="translate(0,-27.25)"><text x="134.89" y="200.7" text-anchor="middle" style="font-family: 'Open Sans', verdana, arial, sans-serif; font-size: 10px; fill: rgb(17, 17, 17); fill-opacity: 1; white-space: pre;">CRC</text></g><g class="textpoint" transform="translate(0,-27.25)"><text x="247.31" y="200.7" text-anchor="middle" style="font-family: 'Open Sans', verdana, arial, sans-serif; font-size: 10px; fill: rgb(17, 17, 17); fill-opacity: 1; white-space: pre;">CRG</text></g></g></g><g class="trace scatter trace4ca396" style="stroke-miterlimit: 2; opacity: 1;"><g class="fills"/><g class="errorbars"/><g class="lines"/><g class="points"/><g class="text"/></g><g class="trace scatter trace5c1fe5" style="stroke-miterlimit: 2; opacity: 1;"><g class="fills"/><g class="errorbars"/><g class="lines"/><g class="points"/><g class="text"/></g><g class="trace scatter trace966357" style="stroke-miterlimit: 2; opacity: 1;"><g class="fills"/><g class="errorbars"/><g class="lines"/><g class="points"/><g class="text"/></g><g class="trace scatter tracecad8ff" style="stroke-miterlimit: 2; opacity: 1;"><g class="fills"/><g class="errorbars"/><g class="lines"/><g class="points"/><g class="text"/></g><g class="trace scatter tracec9b5a3" style="stroke-miterlimit: 2; opacity: 1;"><g class="fills"/><g class="errorbars"/><g class="lines"/><g class="points"/><g class="text"/></g><g class="trace scatter trace4d5915" style="stroke-miterlimit: 2; opacity: 1;"><g class="fills"/><g class="errorbars"/><g class="lines"/><g class="points"/><g class="text"/></g><g class="trace scatter trace9ebf89" style="stroke-miterlimit: 2; opacity: 1;"><g class="fills"/><g class="errorbars"/><g class="lines"/><g class="points"/><g class="text"/></g><g class="trace scatter trace70fc7e" style="stroke-miterlimit: 2; opacity: 1;"><g class="fills"/><g class="errorbars"/><g class="lines"/><g class="points"/><g class="text"/></g><g class="trace scatter trace9913c7" style="stroke-miterlimit: 2; opacity: 1;"><g class="fills"/><g class="errorbars"/><g class="lines"/><g class="points"/><g class="text"/></g><g class="trace scatter trace03e3d2" style="stroke-miterlimit: 2; opacity: 1;"><g class="fills"/><g class="errorbars"/><g class="lines"/><g class="points"/><g class="text"/></g><g class="trace scatter tracef1a8e1" style="stroke-miterlimit: 2; opacity: 1;"><g class="fills"/><g class="errorbars"/><g class="lines"/><g class="points"/><g class="text"/></g></g></g></g><g class="zerolinelayer-above"/><path class="xlines-above crisp" d="M0,0" style="fill: none;"/><path class="ylines-above crisp" d="M0,0" style="fill: none;"/><g class="overlines-above"/><g class="xaxislayer-above"/><g class="yaxislayer-above"/><g class="overaxes-above"/></g><g class="subplot x2y2"><g class="layer-subplot"><g class="shapelayer"/><g class="imagelayer"/></g><g class="minor-gridlayer"><g class="x2"/><g class="y2"/></g><g class="gridlayer"><g class="x2"/><g class="y2"/></g><g class="zerolinelayer"/><g class="layer-between"><g class="shapelayer"/><g class="imagelayer"/></g><path class="xlines-below"/><path class="ylines-below"/><g class="overlines-below"/><g class="xaxislayer-below"/><g class="yaxislayer-below"/><g class="overaxes-below"/><g class="overplot"><g class="x2y2" transform="translate(407.8,50)" clip-path="url(#clip4653f2x2y2plot)"><g class="scatterlayer mlayer"><g class="trace scatter trace3325d3" style="stroke-miterlimit: 2; opacity: 1;"><g class="fills"/><g class="errorbars"/><g class="lines"><path class="js-line" d="M50.59,425.49L191.1,80.28" style="vector-effect: none; fill: none; stroke: rgb(180, 180, 180); stroke-opacity: 0.5; stroke-width: 1.5px; opacity: 1;"/><path class="js-line" d="M81.81,513.8L191.1,80.28" style="vector-effect: none; fill: none; stroke: rgb(180, 180, 180); stroke-opacity: 0.5; stroke-width: 1.5px; opacity: 1;"/><path class="js-line" d="M113.04,425.49L191.1,80.28" style="vector-effect: none; fill: none; stroke: rgb(180, 180, 180); stroke-opacity: 0.5; stroke-width: 1.5px; opacity: 1;"/><path class="js-line" d="M144.26,513.8L191.1,80.28" style="vector-effect: none; fill: none; stroke: rgb(180, 180, 180); stroke-opacity: 0.5; stroke-width: 1.5px; opacity: 1;"/><path class="js-line" d="M175.49,425.49L191.1,80.28" style="vector-effect: none; fill: none; stroke: rgb(180, 180, 180); stroke-opacity: 0.5; stroke-width: 1.5px; opacity: 1;"/><path class="js-line" d="M206.71,513.8L191.1,80.28" style="vector-effect: none; fill: none; stroke: rgb(180, 180, 180); stroke-opacity: 0.5; stroke-width: 1.5px; opacity: 1;"/><path class="js-line" d="M237.94,425.49L191.1,80.28" style="vector-effect: none; fill: none; stroke: rgb(180, 180, 180); stroke-opacity: 0.5; stroke-width: 1.5px; opacity: 1;"/><path class="js-line" d="M269.16,513.8L191.1,80.28" style="vector-effect: none; fill: none; stroke: rgb(180, 180, 180); stroke-opacity: 0.5; stroke-width: 1.5px; opacity: 1;"/><path class="js-line" d="M300.39,425.49L191.1,80.28" style="vector-effect: none; fill: none; stroke: rgb(180, 180, 180); stroke-opacity: 0.5; stroke-width: 1.5px; opacity: 1;"/><path class="js-line" d="M331.61,513.8L191.1,80.28" style="vector-effect: none; fill: none; stroke: rgb(180, 180, 180); stroke-opacity: 0.5; stroke-width: 1.5px; opacity: 1;"/></g><g class="points"/><g class="text"/></g><g class="trace scatter trace9c1e9e" style="stroke-miterlimit: 2; opacity: 1;"><g class="fills"/><g class="errorbars"/><g class="lines"><path class="js-line" d="M191.1,80.28L134.89,200.7" style="vector-effect: none; fill: none; stroke: rgb(231, 76, 60); stroke-opacity: 0.85; stroke-width: 3.5px; opacity: 1;"/><path class="js-line" d="M191.1,80.28L247.31,200.7" style="vector-effect: none; fill: none; stroke: rgb(231, 76, 60); stroke-opacity: 0.85; stroke-width: 3.5px; opacity: 1;"/></g><g class="points"/><g class="text"/></g><g class="trace scatter trace98b3c0" style="stroke-miterlimit: 2; opacity: 1;"><g class="fills"/><g class="errorbars"/><g class="lines"><path class="js-line" d="M81.81,513.8L134.89,200.7" style="vector-effect: none; fill: none; stroke: rgb(52, 152, 219); stroke-opacity: 0.7; stroke-dasharray: 9px, 9px; stroke-width: 2px; opacity: 1;"/></g><g class="points"/><g class="text"/></g><g class="trace scatter trace0b10dd" style="stroke-miterlimit: 2; opacity: 1;"><g class="fills"/><g class="errorbars"/><g class="lines"/><g class="points"><path class="point" transform="translate(50.59,425.49)" d="M12,0A12,12 0 1,1 0,-12A12,12 0 0,1 12,0Z" style="opacity: 0.7; stroke-width: 2px; fill: rgb(156, 39, 176); fill-opacity: 1; stroke: rgb(51, 51, 51); stroke-opacity: 1;"/><path class="point" transform="translate(81.81,513.8)" d="M12,0A12,12 0 1,1 0,-12A12,12 0 0,1 12,0Z" style="opacity: 0.7; stroke-width: 2px; fill: rgb(76, 175, 80); fill-opacity: 1; stroke: rgb(51, 51, 51); stroke-opacity: 1;"/><path class="point" transform="translate(113.04,425.49)" d="M12,0A12,12 0 1,1 0,-12A12,12 0 0,1 12,0Z" style="opacity: 0.7; stroke-width: 2px; fill: rgb(255, 87, 34); fill-opacity: 1; stroke: rgb(51, 51, 51); stroke-opacity: 1;"/><path class="point" transform="translate(144.26,513.8)" d="M12,0A12,12 0 1,1 0,-12A12,12 0 0,1 12,0Z" style="opacity: 0.7; stroke-width: 2px; fill: rgb(255, 87, 34); fill-opacity: 1; stroke: rgb(51, 51, 51); stroke-opacity: 1;"/><path class="point" transform="translate(175.49,425.49)" d="M12,0A12,12 0 1,1 0,-12A12,12 0 0,1 12,0Z" style="opacity: 0.7; stroke-width: 2px; fill: rgb(233, 30, 99); fill-opacity: 1; stroke: rgb(51, 51, 51); stroke-opacity: 1;"/><path class="point" transform="translate(206.71,513.8)" d="M12,0A12,12 0 1,1 0,-12A12,12 0 0,1 12,0Z" style="opacity: 0.7; stroke-width: 2px; fill: rgb(158, 158, 158); fill-opacity: 1; stroke: rgb(51, 51, 51); stroke-opacity: 1;"/><path class="point" transform="translate(237.94,425.49)" d="M12,0A12,12 0 1,1 0,-12A12,12 0 0,1 12,0Z" style="opacity: 0.7; stroke-width: 2px; fill: rgb(255, 87, 34); fill-opacity: 1; stroke: rgb(51, 51, 51); stroke-opacity: 1;"/><path class="point" transform="translate(269.16,513.8)" d="M12,0A12,12 0 1,1 0,-12A12,12 0 0,1 12,0Z" style="opacity: 0.7; stroke-width: 2px; fill: rgb(255, 87, 34); fill-opacity: 1; stroke: rgb(51, 51, 51); stroke-opacity: 1;"/><path class="point" transform="translate(300.39,425.49)" d="M12,0A12,12 0 1,1 0,-12A12,12 0 0,1 12,0Z" style="opacity: 0.7; stroke-width: 2px; fill: rgb(76, 175, 80); fill-opacity: 1; stroke: rgb(51, 51, 51); stroke-opacity: 1;"/><path class="point" transform="translate(331.61,513.8)" d="M12,0A12,12 0 1,1 0,-12A12,12 0 0,1 12,0Z" style="opacity: 0.7; stroke-width: 2px; fill: rgb(33, 150, 243); fill-opacity: 1; stroke: rgb(51, 51, 51); stroke-opacity: 1;"/><path class="point" transform="translate(191.1,80.28)" d="M24.7,0L0,24.7L-24.7,0L0,-24.7Z" style="opacity: 0.7; stroke-width: 2px; fill: rgb(231, 76, 60); fill-opacity: 1; stroke: rgb(51, 51, 51); stroke-opacity: 1;"/><path class="point" transform="translate(134.89,200.7)" d="M24.7,0L0,24.7L-24.7,0L0,-24.7Z" style="opacity: 0.7; stroke-width: 2px; fill: rgb(41, 128, 185); fill-opacity: 1; stroke: rgb(51, 51, 51); stroke-opacity: 1;"/><path class="point" transform="translate(247.31,200.7)" d="M24.7,0L0,24.7L-24.7,0L0,-24.7Z" style="opacity: 0.7; stroke-width: 2px; fill: rgb(39, 174, 96); fill-opacity: 1; stroke: rgb(51, 51, 51); stroke-opacity: 1;"/></g><g class="text"><g class="textpoint" transform="translate(0,-18.5)"><text x="50.59" y="425.49" text-anchor="middle" style="font-family: 'Open Sans', verdana, arial, sans-serif; font-size: 10px; fill: rgb(17, 17, 17); fill-opacity: 1; white-space: pre;">ASIA BOOKS</text></g><g class="textpoint" transform="translate(0,23.5)"><text x="81.81" y="513.8" text-anchor="middle" style="font-family: 'Open Sans', verdana, arial, sans-serif; font-size: 10px; fill: rgb(17, 17, 17); fill-opacity: 1; white-space: pre;">MATSUKIYO</text></g><g class="textpoint" transform="translate(0,-18.5)"><text x="113.04" y="425.49" text-anchor="middle" style="font-family: 'Open Sans', verdana, arial, sans-serif; font-size: 10px; fill: rgb(17, 17, 17); fill-opacity: 1; white-space: pre;">WHITE STORY</text></g><g class="textpoint" transform="translate(0,23.5)"><text x="144.26" y="513.8" text-anchor="middle" style="font-family: 'Open Sans', verdana, arial, sans-serif; font-size: 10px; fill: rgb(17, 17, 17); fill-opacity: 1; white-space: pre;">KUMPOON</text></g><g class="textpoint" transform="translate(0,-18.5)"><text x="175.49" y="425.49" text-anchor="middle" style="font-family: 'Open Sans', verdana, arial, sans-serif; font-size: 10px; fill: rgb(17, 17, 17); fill-opacity: 1; white-space: pre;">CROCS</text></g><g class="textpoint" transform="translate(0,23.5)"><text x="206.71" y="513.8" text-anchor="middle" style="font-family: 'Open Sans', verdana, arial, sans-serif; font-size: 10px; fill: rgb(17, 17, 17); fill-opacity: 1; white-space: pre;">AKKARA BANGKOK</text></g><g class="textpoint" transform="translate(0,-18.5)"><text x="237.94" y="425.49" text-anchor="middle" style="font-family: 'Open Sans', verdana, arial, sans-serif; font-size: 10px; fill: rgb(17, 17, 17); fill-opacity: 1; white-space: pre;">YOLE</text></g><g class="textpoint" transform="translate(0,23.5)"><text x="269.16" y="513.8" text-anchor="middle" style="font-family: 'Open Sans', verdana, arial, sans-serif; font-size: 10px; fill: rgb(17, 17, 17); fill-opacity: 1; white-space: pre;">STARBUCKS COFFEE</text></g><g class="textpoint" transform="translate(0,-18.5)"><text x="300.39" y="425.49" text-anchor="middle" style="font-family: 'Open Sans', verdana, arial, sans-serif; font-size: 10px; fill: rgb(17, 17, 17); fill-opacity: 1; white-space: pre;">WATSONS</text></g><g class="textpoint" transform="translate(0,23.5)"><text x="331.61" y="513.8" text-anchor="middle" style="font-family: 'Open Sans', verdana, arial, sans-serif; font-size: 10px; fill: rgb(17, 17, 17); fill-opacity: 1; white-space: pre;">BANANA</text></g><g class="textpoint" transform="translate(0,-27.25)"><text x="191.1" y="80.28" text-anchor="middle" style="font-family: 'Open Sans', verdana, arial, sans-serif; font-size: 10px; fill: rgb(17, 17, 17); fill-opacity: 1; white-space: pre;">CPN</text></g><g class="textpoint" transform="translate(0,-27.25)"><text x="134.89" y="200.7" text-anchor="middle" style="font-family: 'Open Sans', verdana, arial, sans-serif; font-size: 10px; fill: rgb(17, 17, 17); fill-opacity: 1; white-space: pre;">CRC</text></g><g class="textpoint" transform="translate(0,-27.25)"><text x="247.31" y="200.7" text-anchor="middle" style="font-family: 'Open Sans', verdana, arial, sans-serif; font-size: 10px; fill: rgb(17, 17, 17); fill-opacity: 1; white-space: pre;">CRG</text></g></g></g><g class="trace scatter trace582547" style="stroke-miterlimit: 2; opacity: 1;"><g class="fills"/><g class="errorbars"/><g class="lines"/><g class="points"/><g class="text"/></g><g class="trace scatter trace881d24" style="stroke-miterlimit: 2; opacity: 1;"><g class="fills"/><g class="errorbars"/><g class="lines"/><g class="points"/><g class="text"/></g><g class="trace scatter trace3b3230" style="stroke-miterlimit: 2; opacity: 1;"><g class="fills"/><g class="errorbars"/><g class="lines"/><g class="points"/><g class="text"/></g><g class="trace scatter tracee71b46" style="stroke-miterlimit: 2; opacity: 1;"><g class="fills"/><g class="errorbars"/><g class="lines"/><g class="points"/><g class="text"/></g><g class="trace scatter tracef4069c" style="stroke-miterlimit: 2; opacity: 1;"><g class="fills"/><g class="errorbars"/><g class="lines"/><g class="points"/><g class="text"/></g><g class="trace scatter trace4d733b" style="stroke-miterlimit: 2; opacity: 1;"><g class="fills"/><g class="errorbars"/><g class="lines"/><g class="points"/><g class="text"/></g><g class="trace scatter tracefb4f9f" style="stroke-miterlimit: 2; opacity: 1;"><g class="fills"/><g class="errorbars"/><g class="lines"/><g class="points"/><g class="text"/></g><g class="trace scatter traced3e42c" style="stroke-miterlimit: 2; opacity: 1;"><g class="fills"/><g class="errorbars"/><g class="lines"/><g class="points"/><g class="text"/></g><g class="trace scatter trace6247cf" style="stroke-miterlimit: 2; opacity: 1;"><g class="fills"/><g class="errorbars"/><g class="lines"/><g class="points"/><g class="text"/></g><g class="trace scatter tracea49d61" style="stroke-miterlimit: 2; opacity: 1;"><g class="fills"/><g class="errorbars"/><g class="lines"/><g class="points"/><g class="text"/></g><g class="trace scatter trace7e0fb5" style="stroke-miterlimit: 2; opacity: 1;"><g class="fills"/><g class="errorbars"/><g class="lines"/><g class="points"/><g class="text"/></g></g></g></g><g class="zerolinelayer-above"/><path class="xlines-above crisp" d="M0,0" style="fill: none;"/><path class="ylines-above crisp" d="M0,0" style="fill: none;"/><g class="overlines-above"/><g class="xaxislayer-above"/><g class="yaxislayer-above"/><g class="overaxes-above"/></g></g><g class="polarlayer"/><g class="smithlayer"/><g class="ternarylayer"/><g class="geolayer"/><g class="funnelarealayer"/><g class="pielayer"/><g class="iciclelayer"/><g class="treemaplayer"/><g class="sunburstlayer"/><g class="glimages"/><defs id="topdefs-4653f2"><g class="clips"/><clipPath id="legend4653f2"><rect width="187" height="485" x="1" y="1"/></clipPath></defs><g class="layer-above"><g class="imagelayer"/><g class="shapelayer"/></g><g class="infolayer"><g class="legend" pointer-events="all" transform="translate(17.8,55.7)"><rect class="bg" shape-rendering="crispEdges" style="stroke: rgb(204, 204, 204); stroke-opacity: 1; fill: rgb(255, 255, 255); fill-opacity: 0.85; stroke-width: 1px;" width="188" height="486" x="0.5" y="0.5"/><g class="scrollbox" transform="" clip-path="url(#legend4653f2)"><g class="groups"><g class="traces" transform="translate(1,15.5)" style="opacity: 1;"><text class="legendtext" text-anchor="start" x="40" y="3.5100000000000002" style="font-family: 'Open Sans', verdana, arial, sans-serif; font-size: 9px; fill: rgb(42, 63, 95); fill-opacity: 1; white-space: pre;">CPN→Tenant</text><g class="layers" style="opacity: 1;"><g class="legendfill"/><g class="legendlines"><path class="js-line" d="M5,0h30" style="fill: none; stroke: rgb(180, 180, 180); stroke-opacity: 0.5; stroke-width: 1.5px;"/></g><g class="legendsymbols"><g class="legendpoints"/></g></g><rect class="legendtoggle" x="0" y="-9.5" width="181.421875" height="19" style="fill: rgb(0, 0, 0); fill-opacity: 0;"/></g><g class="traces" transform="translate(1,34.5)" style="opacity: 1;"><text class="legendtext" text-anchor="start" x="40" y="3.5100000000000002" style="font-family: 'Open Sans', verdana, arial, sans-serif; font-size: 9px; fill: rgb(42, 63, 95); fill-opacity: 1; white-space: pre;">Alliance</text><g class="layers" style="opacity: 1;"><g class="legendfill"/><g class="legendlines"><path class="js-line" d="M5,0h30" style="fill: none; stroke: rgb(231, 76, 60); stroke-opacity: 0.85; stroke-width: 3.5px;"/></g><g class="legendsymbols"><g class="legendpoints"/></g></g><rect class="legendtoggle" x="0" y="-9.5" width="181.421875" height="19" style="fill: rgb(0, 0, 0); fill-opacity: 0;"/></g><g class="traces" transform="translate(1,53.5)" style="opacity: 1;"><text class="legendtext" text-anchor="start" x="40" y="3.5100000000000002" style="font-family: 'Open Sans', verdana, arial, sans-serif; font-size: 9px; fill: rgb(42, 63, 95); fill-opacity: 1; white-space: pre;">Ownership</text><g class="layers" style="opacity: 1;"><g class="legendfill"/><g class="legendlines"><path class="js-line" d="M5,0h30" style="fill: none; stroke: rgb(52, 152, 219); stroke-opacity: 0.7; stroke-dasharray: 9px, 9px; stroke-width: 2px;"/></g><g class="legendsymbols"><g class="legendpoints"/></g></g><rect class="legendtoggle" x="0" y="-9.5" width="181.421875" height="19" style="fill: rgb(0, 0, 0); fill-opacity: 0;"/></g><g class="traces" transform="translate(1,72.5)" style="opacity: 1;"><text class="legendtext" text-anchor="start" x="40" y="3.5100000000000002" style="font-family: 'Open Sans', verdana, arial, sans-serif; font-size: 9px; fill: rgb(42, 63, 95); fill-opacity: 1; white-space: pre;">Alliance Entity (CPN/CRC/CRG)</text><g class="layers" style="opacity: 1;"><g class="legendfill"/><g class="legendlines"/><g class="legendsymbols"><g class="legendpoints"><path class="scatterpts" transform="translate(20,0)" d="M9.1,0L0,9.1L-9.1,0L0,-9.1Z" style="opacity: 1; stroke-width: 1px; fill: rgb(231, 76, 60); fill-opacity: 1; stroke: rgb(51, 51, 51); stroke-opacity: 1;"/></g></g></g><rect class="legendtoggle" x="0" y="-9.5" width="181.421875" height="19" style="fill: rgb(0, 0, 0); fill-opacity: 0;"/></g><g class="traces" transform="translate(1,91.5)" style="opacity: 1;"><text class="legendtext" text-anchor="start" x="40" y="3.5100000000000002" style="font-family: 'Open Sans', verdana, arial, sans-serif; font-size: 9px; fill: rgb(42, 63, 95); fill-opacity: 1; white-space: pre;">Food &amp; Beverage</text><g class="layers" style="opacity: 1;"><g class="legendfill"/><g class="legendlines"/><g class="legendsymbols"><g class="legendpoints"><path class="scatterpts" transform="translate(20,0)" d="M5,0A5,5 0 1,1 0,-5A5,5 0 0,1 5,0Z" style="opacity: 1; stroke-width: 1px; fill: rgb(255, 87, 34); fill-opacity: 1; stroke: rgb(51, 51, 51); stroke-opacity: 1;"/></g></g></g><rect class="legendtoggle" x="0" y="-9.5" width="181.421875" height="19" style="fill: rgb(0, 0, 0); fill-opacity: 0;"/></g><g class="traces" transform="translate(1,110.5)" style="opacity: 1;"><text class="legendtext" text-anchor="start" x="40" y="3.5100000000000002" style="font-family: 'Open Sans', verdana, arial, sans-serif; font-size: 9px; fill: rgb(42, 63, 95); fill-opacity: 1; white-space: pre;">Fashion &amp; Apparel</text><g class="layers" style="opacity: 1;"><g class="legendfill"/><g class="legendlines"/><g class="legendsymbols"><g class="legendpoints"><path class="scatterpts" transform="translate(20,0)" d="M5,0A5,5 0 1,1 0,-5A5,5 0 0,1 5,0Z" style="opacity: 1; stroke-width: 1px; fill: rgb(233, 30, 99); fill-opacity: 1; stroke: rgb(51, 51, 51); stroke-opacity: 1;"/></g></g></g><rect class="legendtoggle" x="0" y="-9.5" width="181.421875" height="19" style="fill: rgb(0, 0, 0); fill-opacity: 0;"/></g><g class="traces" transform="translate(1,129.5)" style="opacity: 1;"><text class="legendtext" text-anchor="start" x="40" y="3.5100000000000002" style="font-family: 'Open Sans', verdana, arial, sans-serif; font-size: 9px; fill: rgb(42, 63, 95); fill-opacity: 1; white-space: pre;">Beauty &amp; Wellness</text><g class="layers" style="opacity: 1;"><g class="legendfill"/><g class="legendlines"/><g class="legendsymbols"><g class="legendpoints"><path class="scatterpts" transform="translate(20,0)" d="M5,0A5,5 0 1,1 0,-5A5,5 0 0,1 5,0Z" style="opacity: 1; stroke-width: 1px; fill: rgb(76, 175, 80); fill-opacity: 1; stroke: rgb(51, 51, 51); stroke-opacity: 1;"/></g></g></g><rect class="legendtoggle" x="0" y="-9.5" width="181.421875" height="19" style="fill: rgb(0, 0, 0); fill-opacity: 0;"/></g><g class="traces" transform="translate(1,148.5)" style="opacity: 1;"><text class="legendtext" text-anchor="start" x="40" y="3.5100000000000002" style="font-family: 'Open Sans', verdana, arial, sans-serif; font-size: 9px; fill: rgb(42, 63, 95); fill-opacity: 1; white-space: pre;">Lifestyle &amp; Specialty</text><g class="layers" style="opacity: 1;"><g class="legendfill"/><g class="legendlines"/><g class="legendsymbols"><g class="legendpoints"><path class="scatterpts" transform="translate(20,0)" d="M5,0A5,5 0 1,1 0,-5A5,5 0 0,1 5,0Z" style="opacity: 1; stroke-width: 1px; fill: rgb(156, 39, 176); fill-opacity: 1; stroke: rgb(51, 51, 51); stroke-opacity: 1;"/></g></g></g><rect class="legendtoggle" x="0" y="-9.5" width="181.421875" height="19" style="fill: rgb(0, 0, 0); fill-opacity: 0;"/></g><g class="traces" transform="translate(1,167.5)" style="opacity: 1;"><text class="legendtext" text-anchor="start" x="40" y="3.5100000000000002" style="font-family: 'Open Sans', verdana, arial, sans-serif; font-size: 9px; fill: rgb(42, 63, 95); fill-opacity: 1; white-space: pre;">Technology &amp; Electronics</text><g class="layers" style="opacity: 1;"><g class="legendfill"/><g class="legendlines"/><g class="legendsymbols"><g class="legendpoints"><path class="scatterpts" transform="translate(20,0)" d="M5,0A5,5 0 1,1 0,-5A5,5 0 0,1 5,0Z" style="opacity: 1; stroke-width: 1px; fill: rgb(33, 150, 243); fill-opacity: 1; stroke: rgb(51, 51, 51); stroke-opacity: 1;"/></g></g></g><rect class="legendtoggle" x="0" y="-9.5" width="181.421875" height="19" style="fill: rgb(0, 0, 0); fill-opacity: 0;"/></g><g class="traces" transform="translate(1,186.5)" style="opacity: 1;"><text class="legendtext" text-anchor="start" x="40" y="3.5100000000000002" style="font-family: 'Open Sans', verdana, arial, sans-serif; font-size: 9px; fill: rgb(42, 63, 95); fill-opacity: 1; white-space: pre;">Entertainment</text><g class="layers" style="opacity: 1;"><g class="legendfill"/><g class="legendlines"/><g class="legendsymbols"><g class="legendpoints"><path class="scatterpts" transform="translate(20,0)" d="M5,0A5,5 0 1,1 0,-5A5,5 0 0,1 5,0Z" style="opacity: 1; stroke-width: 1px; fill: rgb(255, 152, 0); fill-opacity: 1; stroke: rgb(51, 51, 51); stroke-opacity: 1;"/></g></g></g><rect class="legendtoggle" x="0" y="-9.5" width="181.421875" height="19" style="fill: rgb(0, 0, 0); fill-opacity: 0;"/></g><g class="traces" transform="translate(1,205.5)" style="opacity: 1;"><text class="legendtext" text-anchor="start" x="40" y="3.5100000000000002" style="font-family: 'Open Sans', verdana, arial, sans-serif; font-size: 9px; fill: rgb(42, 63, 95); fill-opacity: 1; white-space: pre;">Services &amp; Education</text><g class="layers" style="opacity: 1;"><g class="legendfill"/><g class="legendlines"/><g class="legendsymbols"><g class="legendpoints"><path class="scatterpts" transform="translate(20,0)" d="M5,0A5,5 0 1,1 0,-5A5,5 0 0,1 5,0Z" style="opacity: 1; stroke-width: 1px; fill: rgb(0, 188, 212); fill-opacity: 1; stroke: rgb(51, 51, 51); stroke-opacity: 1;"/></g></g></g><rect class="legendtoggle" x="0" y="-9.5" width="181.421875" height="19" style="fill: rgb(0, 0, 0); fill-opacity: 0;"/></g><g class="traces" transform="translate(1,224.5)" style="opacity: 1;"><text class="legendtext" text-anchor="start" x="40" y="3.5100000000000002" style="font-family: 'Open Sans', verdana, arial, sans-serif; font-size: 9px; fill: rgb(42, 63, 95); fill-opacity: 1; white-space: pre;">Bank &amp; Financial Services</text><g class="layers" style="opacity: 1;"><g class="legendfill"/><g class="legendlines"/><g class="legendsymbols"><g class="legendpoints"><path class="scatterpts" transform="translate(20,0)" d="M5,0A5,5 0 1,1 0,-5A5,5 0 0,1 5,0Z" style="opacity: 1; stroke-width: 1px; fill: rgb(255, 193, 7); fill-opacity: 1; stroke: rgb(51, 51, 51); stroke-opacity: 1;"/></g></g></g><rect class="legendtoggle" x="0" y="-9.5" width="181.421875" height="19" style="fill: rgb(0, 0, 0); fill-opacity: 0;"/></g><g class="traces" transform="translate(1,243.5)" style="opacity: 1;"><text class="legendtext" text-anchor="start" x="40" y="3.5100000000000002" style="font-family: 'Open Sans', verdana, arial, sans-serif; font-size: 9px; fill: rgb(42, 63, 95); fill-opacity: 1; white-space: pre;">Supermarket</text><g class="layers" style="opacity: 1;"><g class="legendfill"/><g class="legendlines"/><g class="legendsymbols"><g class="legendpoints"><path class="scatterpts" transform="translate(20,0)" d="M5,0A5,5 0 1,1 0,-5A5,5 0 0,1 5,0Z" style="opacity: 1; stroke-width: 1px; fill: rgb(121, 85, 72); fill-opacity: 1; stroke: rgb(51, 51, 51); stroke-opacity: 1;"/></g></g></g><rect class="legendtoggle" x="0" y="-9.5" width="181.421875" height="19" style="fill: rgb(0, 0, 0); fill-opacity: 0;"/></g><g class="traces" transform="translate(1,262.5)" style="opacity: 1;"><text class="legendtext" text-anchor="start" x="40" y="3.5100000000000002" style="font-family: 'Open Sans', verdana, arial, sans-serif; font-size: 9px; fill: rgb(42, 63, 95); fill-opacity: 1; white-space: pre;">Other</text><g class="layers" style="opacity: 1;"><g class="legendfill"/><g class="legendlines"/><g class="legendsymbols"><g class="legendpoints"><path class="scatterpts" transform="translate(20,0)" d="M5,0A5,5 0 1,1 0,-5A5,5 0 0,1 5,0Z" style="opacity: 1; stroke-width: 1px; fill: rgb(158, 158, 158); fill-opacity: 1; stroke: rgb(51, 51, 51); stroke-opacity: 1;"/></g></g></g><rect class="legendtoggle" x="0" y="-9.5" width="181.421875" height="19" style="fill: rgb(0, 0, 0); fill-opacity: 0;"/></g><g class="traces" transform="translate(1,281.5)" style="opacity: 1;"><text class="legendtext" text-anchor="start" x="40" y="3.5100000000000002" style="font-family: 'Open Sans', verdana, arial, sans-serif; font-size: 9px; fill: rgb(42, 63, 95); fill-opacity: 1; white-space: pre;">Alliance Entity (CPN/CRC/CRG)</text><g class="layers" style="opacity: 1;"><g class="legendfill"/><g class="legendlines"/><g class="legendsymbols"><g class="legendpoints"><path class="scatterpts" transform="translate(20,0)" d="M9.1,0L0,9.1L-9.1,0L0,-9.1Z" style="opacity: 1; stroke-width: 1px; fill: rgb(231, 76, 60); fill-opacity: 1; stroke: rgb(51, 51, 51); stroke-opacity: 1;"/></g></g></g><rect class="legendtoggle" x="0" y="-9.5" width="181.421875" height="19" style="fill: rgb(0, 0, 0); fill-opacity: 0;"/></g><g class="traces" transform="translate(1,300.5)" style="opacity: 1;"><text class="legendtext" text-anchor="start" x="40" y="3.5100000000000002" style="font-family: 'Open Sans', verdana, arial, sans-serif; font-size: 9px; fill: rgb(42, 63, 95); fill-opacity: 1; white-space: pre;">Food &amp; Beverage</text><g class="layers" style="opacity: 1;"><g class="legendfill"/><g class="legendlines"/><g class="legendsymbols"><g class="legendpoints"><path class="scatterpts" transform="translate(20,0)" d="M5,0A5,5 0 1,1 0,-5A5,5 0 0,1 5,0Z" style="opacity: 1; stroke-width: 1px; fill: rgb(255, 87, 34); fill-opacity: 1; stroke: rgb(51, 51, 51); stroke-opacity: 1;"/></g></g></g><rect class="legendtoggle" x="0" y="-9.5" width="181.421875" height="19" style="fill: rgb(0, 0, 0); fill-opacity: 0;"/></g><g class="traces" transform="translate(1,319.5)" style="opacity: 1;"><text class="legendtext" text-anchor="start" x="40" y="3.5100000000000002" style="font-family: 'Open Sans', verdana, arial, sans-serif; font-size: 9px; fill: rgb(42, 63, 95); fill-opacity: 1; white-space: pre;">Fashion &amp; Apparel</text><g class="layers" style="opacity: 1;"><g class="legendfill"/><g class="legendlines"/><g class="legendsymbols"><g class="legendpoints"><path class="scatterpts" transform="translate(20,0)" d="M5,0A5,5 0 1,1 0,-5A5,5 0 0,1 5,0Z" style="opacity: 1; stroke-width: 1px; fill: rgb(233, 30, 99); fill-opacity: 1; stroke: rgb(51, 51, 51); stroke-opacity: 1;"/></g></g></g><rect class="legendtoggle" x="0" y="-9.5" width="181.421875" height="19" style="fill: rgb(0, 0, 0); fill-opacity: 0;"/></g><g class="traces" transform="translate(1,338.5)" style="opacity: 1;"><text class="legendtext" text-anchor="start" x="40" y="3.5100000000000002" style="font-family: 'Open Sans', verdana, arial, sans-serif; font-size: 9px; fill: rgb(42, 63, 95); fill-opacity: 1; white-space: pre;">Beauty &amp; Wellness</text><g class="layers" style="opacity: 1;"><g class="legendfill"/><g class="legendlines"/><g class="legendsymbols"><g class="legendpoints"><path class="scatterpts" transform="translate(20,0)" d="M5,0A5,5 0 1,1 0,-5A5,5 0 0,1 5,0Z" style="opacity: 1; stroke-width: 1px; fill: rgb(76, 175, 80); fill-opacity: 1; stroke: rgb(51, 51, 51); stroke-opacity: 1;"/></g></g></g><rect class="legendtoggle" x="0" y="-9.5" width="181.421875" height="19" style="fill: rgb(0, 0, 0); fill-opacity: 0;"/></g><g class="traces" transform="translate(1,357.5)" style="opacity: 1;"><text class="legendtext" text-anchor="start" x="40" y="3.5100000000000002" style="font-family: 'Open Sans', verdana, arial, sans-serif; font-size: 9px; fill: rgb(42, 63, 95); fill-opacity: 1; white-space: pre;">Lifestyle &amp; Specialty</text><g class="layers" style="opacity: 1;"><g class="legendfill"/><g class="legendlines"/><g class="legendsymbols"><g class="legendpoints"><path class="scatterpts" transform="translate(20,0)" d="M5,0A5,5 0 1,1 0,-5A5,5 0 0,1 5,0Z" style="opacity: 1; stroke-width: 1px; fill: rgb(156, 39, 176); fill-opacity: 1; stroke: rgb(51, 51, 51); stroke-opacity: 1;"/></g></g></g><rect class="legendtoggle" x="0" y="-9.5" width="181.421875" height="19" style="fill: rgb(0, 0, 0); fill-opacity: 0;"/></g><g class="traces" transform="translate(1,376.5)" style="opacity: 1;"><text class="legendtext" text-anchor="start" x="40" y="3.5100000000000002" style="font-family: 'Open Sans', verdana, arial, sans-serif; font-size: 9px; fill: rgb(42, 63, 95); fill-opacity: 1; white-space: pre;">Technology &amp; Electronics</text><g class="layers" style="opacity: 1;"><g class="legendfill"/><g class="legendlines"/><g class="legendsymbols"><g class="legendpoints"><path class="scatterpts" transform="translate(20,0)" d="M5,0A5,5 0 1,1 0,-5A5,5 0 0,1 5,0Z" style="opacity: 1; stroke-width: 1px; fill: rgb(33, 150, 243); fill-opacity: 1; stroke: rgb(51, 51, 51); stroke-opacity: 1;"/></g></g></g><rect class="legendtoggle" x="0" y="-9.5" width="181.421875" height="19" style="fill: rgb(0, 0, 0); fill-opacity: 0;"/></g><g class="traces" transform="translate(1,395.5)" style="opacity: 1;"><text class="legendtext" text-anchor="start" x="40" y="3.5100000000000002" style="font-family: 'Open Sans', verdana, arial, sans-serif; font-size: 9px; fill: rgb(42, 63, 95); fill-opacity: 1; white-space: pre;">Entertainment</text><g class="layers" style="opacity: 1;"><g class="legendfill"/><g class="legendlines"/><g class="legendsymbols"><g class="legendpoints"><path class="scatterpts" transform="translate(20,0)" d="M5,0A5,5 0 1,1 0,-5A5,5 0 0,1 5,0Z" style="opacity: 1; stroke-width: 1px; fill: rgb(255, 152, 0); fill-opacity: 1; stroke: rgb(51, 51, 51); stroke-opacity: 1;"/></g></g></g><rect class="legendtoggle" x="0" y="-9.5" width="181.421875" height="19" style="fill: rgb(0, 0, 0); fill-opacity: 0;"/></g><g class="traces" transform="translate(1,414.5)" style="opacity: 1;"><text class="legendtext" text-anchor="start" x="40" y="3.5100000000000002" style="font-family: 'Open Sans', verdana, arial, sans-serif; font-size: 9px; fill: rgb(42, 63, 95); fill-opacity: 1; white-space: pre;">Services &amp; Education</text><g class="layers" style="opacity: 1;"><g class="legendfill"/><g class="legendlines"/><g class="legendsymbols"><g class="legendpoints"><path class="scatterpts" transform="translate(20,0)" d="M5,0A5,5 0 1,1 0,-5A5,5 0 0,1 5,0Z" style="opacity: 1; stroke-width: 1px; fill: rgb(0, 188, 212); fill-opacity: 1; stroke: rgb(51, 51, 51); stroke-opacity: 1;"/></g></g></g><rect class="legendtoggle" x="0" y="-9.5" width="181.421875" height="19" style="fill: rgb(0, 0, 0); fill-opacity: 0;"/></g><g class="traces" transform="translate(1,433.5)" style="opacity: 1;"><text class="legendtext" text-anchor="start" x="40" y="3.5100000000000002" style="font-family: 'Open Sans', verdana, arial, sans-serif; font-size: 9px; fill: rgb(42, 63, 95); fill-opacity: 1; white-space: pre;">Bank &amp; Financial Services</text><g class="layers" style="opacity: 1;"><g class="legendfill"/><g class="legendlines"/><g class="legendsymbols"><g class="legendpoints"><path class="scatterpts" transform="translate(20,0)" d="M5,0A5,5 0 1,1 0,-5A5,5 0 0,1 5,0Z" style="opacity: 1; stroke-width: 1px; fill: rgb(255, 193, 7); fill-opacity: 1; stroke: rgb(51, 51, 51); stroke-opacity: 1;"/></g></g></g><rect class="legendtoggle" x="0" y="-9.5" width="181.421875" height="19" style="fill: rgb(0, 0, 0); fill-opacity: 0;"/></g><g class="traces" transform="translate(1,452.5)" style="opacity: 1;"><text class="legendtext" text-anchor="start" x="40" y="3.5100000000000002" style="font-family: 'Open Sans', verdana, arial, sans-serif; font-size: 9px; fill: rgb(42, 63, 95); fill-opacity: 1; white-space: pre;">Supermarket</text><g class="layers" style="opacity: 1;"><g class="legendfill"/><g class="legendlines"/><g class="legendsymbols"><g class="legendpoints"><path class="scatterpts" transform="translate(20,0)" d="M5,0A5,5 0 1,1 0,-5A5,5 0 0,1 5,0Z" style="opacity: 1; stroke-width: 1px; fill: rgb(121, 85, 72); fill-opacity: 1; stroke: rgb(51, 51, 51); stroke-opacity: 1;"/></g></g></g><rect class="legendtoggle" x="0" y="-9.5" width="181.421875" height="19" style="fill: rgb(0, 0, 0); fill-opacity: 0;"/></g><g class="traces" transform="translate(1,471.5)" style="opacity: 1;"><text class="legendtext" text-anchor="start" x="40" y="3.5100000000000002" style="font-family: 'Open Sans', verdana, arial, sans-serif; font-size: 9px; fill: rgb(42, 63, 95); fill-opacity: 1; white-space: pre;">Other</text><g class="layers" style="opacity: 1;"><g class="legendfill"/><g class="legendlines"/><g class="legendsymbols"><g class="legendpoints"><path class="scatterpts" transform="translate(20,0)" d="M5,0A5,5 0 1,1 0,-5A5,5 0 0,1 5,0Z" style="opacity: 1; stroke-width: 1px; fill: rgb(158, 158, 158); fill-opacity: 1; stroke: rgb(51, 51, 51); stroke-opacity: 1;"/></g></g></g><rect class="legendtoggle" x="0" y="-9.5" width="181.421875" height="19" style="fill: rgb(0, 0, 0); fill-opacity: 0;"/></g></g></g><rect class="scrollbar" rx="20" ry="3" width="0" height="0" style="fill: rgb(128, 139, 164); fill-opacity: 1;" x="0" y="0"/></g><g class="g-gtitle"/><g class="annotation" data-index="0" style="opacity: 1;"><g class="annotation-text-g" transform="rotate(0,201.1,38.5)"><g class="cursor-pointer" transform="translate(170,27)"><rect class="bg" x="0.5" y="0.5" width="61" height="22" style="stroke-width: 1px; stroke: rgb(0, 0, 0); stroke-opacity: 0; fill: rgb(0, 0, 0); fill-opacity: 0;"/><text class="annotation-text" text-anchor="middle" x="30.859375" y="18" style="font-family: 'Open Sans', verdana, arial, sans-serif; font-size: 16px; fill: rgb(42, 63, 95); fill-opacity: 1; white-space: pre;">Degree</text></g></g></g><g class="annotation" data-index="1" style="opacity: 1;"><g class="annotation-text-g" transform="rotate(0,598.9,38.5)"><g class="cursor-pointer" transform="translate(544,27)"><rect class="bg" x="0.5" y="0.5" width="108" height="22" style="stroke-width: 1px; stroke: rgb(0, 0, 0); stroke-opacity: 0; fill: rgb(0, 0, 0); fill-opacity: 0;"/><text class="annotation-text" text-anchor="middle" x="54.7109375" y="18" style="font-family: 'Open Sans', verdana, arial, sans-serif; font-size: 16px; fill: rgb(42, 63, 95); fill-opacity: 1; white-space: pre;">Betweenness</text></g></g></g></g></svg>